<?xml version="1.0" encoding="UTF-8" standalone="no"?>
<!DOCTYPE svg PUBLIC "-//W3C//DTD SVG 1.1//EN" "http://www.w3.org/Graphics/SVG/1.1/DTD/svg11.dtd">
<svg width="100%" height="100%" viewBox="0 0 1000 1000" version="1.1" xmlns="http://www.w3.org/2000/svg" xmlns:xlink="http://www.w3.org/1999/xlink" xml:space="preserve" xmlns:serif="http://www.serif.com/" style="fill-rule:evenodd;clip-rule:evenodd;stroke-linecap:round;stroke-linejoin:round;stroke-miterlimit:10;">
    <g id="XMLID_173_" transform="matrix(1.62935,0,0,1.62935,-316.182,-308.528)">
        <ellipse cx="500" cy="710.6" rx="303.5" ry="28.4" style="fill:rgb(229,229,229);"/>
    </g>
    <g id="XMLID_12_" transform="matrix(1.62935,0,0,1.62935,-316.182,-308.528)">
        <path d="M620.5,675.9C629.4,675.9 636.6,668.7 636.6,659.8L636.6,635.2C636.6,626.3 629.4,619.1 620.5,619.1C611.6,619.1 604.4,626.3 604.4,635.2L604.4,659.8C604.4,668.7 611.6,675.9 620.5,675.9Z" style="fill:none;fill-rule:nonzero;stroke:rgb(77,77,97);stroke-width:3px;"/>
    </g>
    <g id="XMLID_83_" transform="matrix(1.62935,0,0,1.62935,-316.182,-308.528)">
        <path d="M620.5,675.9C629.4,675.9 636.6,668.7 636.6,659.8L636.6,635.2C636.6,626.3 629.4,619.1 620.5,619.1C611.6,619.1 604.4,626.3 604.4,635.2L604.4,659.8C604.4,668.7 611.6,675.9 620.5,675.9Z" style="fill:rgb(77,77,97);fill-rule:nonzero;"/>
    </g>
    <g id="XMLID_169_" transform="matrix(1.62935,0,0,1.62935,-316.182,-308.528)">
        <path d="M608.9,665.6L608.9,641C608.9,632.1 616.1,624.9 625,624.9C628.9,624.9 632.4,626.3 635.2,628.5C632.7,622.9 627.1,619 620.5,619C611.6,619 604.4,626.2 604.4,635.1L604.4,659.7C604.4,664.8 606.7,669.3 610.4,672.2C609.4,670.3 608.9,668 608.9,665.6Z" style="fill:rgb(86,86,109);fill-rule:nonzero;"/>
    </g>
    <g id="XMLID_162_" transform="matrix(1.62935,0,0,1.62935,-316.182,-308.528)">
        <ellipse cx="620.3" cy="622.4" rx="8.9" ry="3.2" style="fill:rgb(77,77,97);"/>
    </g>
    <g id="XMLID_159_" transform="matrix(1.62935,0,0,1.62935,-316.182,-308.528)">
        <path d="M620.5,622.4C623.8,622.4 626.5,619.7 626.5,616.4L626.5,588.7C626.5,585.9 624.2,583.6 621.4,583.6L619.7,583.6C616.9,583.6 614.6,585.9 614.6,588.7L614.6,616.4C614.5,619.7 617.2,622.4 620.5,622.4Z" style="fill:rgb(77,77,97);fill-rule:nonzero;"/>
    </g>
    <g id="XMLID_11_" transform="matrix(1.62935,0,0,1.62935,-316.182,-308.528)">
        <path d="M620.5,622.4C623.8,622.4 626.5,619.7 626.5,616.4L626.5,588.6C626.5,585.8 624.3,583.6 621.5,583.6L619.6,583.6C616.8,583.6 614.6,585.8 614.6,588.6L614.6,616.4C614.5,619.7 617.2,622.4 620.5,622.4Z" style="fill:none;fill-rule:nonzero;stroke:rgb(77,77,97);stroke-width:3px;"/>
    </g>
    <g id="XMLID_121_" transform="matrix(1.62935,0,0,1.62935,-316.182,-308.528)">
        <path d="M494.5,377.4L477.4,377.4C474.2,377.4 471.6,374.8 471.6,371.6C471.6,368.4 474.2,365.8 477.4,365.8L484.6,365.8C490.3,365.8 494.9,361.2 494.9,355.5C494.9,349.8 490.3,345.2 484.6,345.2L462,345.2C461.1,345.2 460.3,344.4 460.3,343.5C460.3,342.6 461.1,341.8 462,341.8L464.5,341.8C465.5,341.8 466.3,341 466.3,340C466.3,339 465.5,338.2 464.5,338.2L446.8,338.2C445.6,338.2 444.6,339.2 444.6,340.4C444.6,341.6 445.6,342.6 446.8,342.6L453.7,342.6C455.7,342.6 457.4,344.3 457.4,346.3C457.4,348.3 455.7,350 453.7,350L450.4,350C445.7,350 441.8,353.8 441.8,358.6C441.8,363.4 445.6,367.2 450.4,367.2L457.4,367.2C459,367.2 460.3,368.5 460.3,370.1C460.3,371.7 459,373 457.4,373L454.7,373C451.6,373 449.1,375.5 449.1,378.6C449.1,381.7 451.6,384.2 454.7,384.2L491.2,384.2C493.2,384.2 494.9,385.9 494.8,387.9L494.7,390.7L502,390.7L502,384.9C501.8,380.7 498.5,377.4 494.5,377.4ZM470.8,355.7C470.8,354.8 471.5,354 472.5,354L482.4,354C483.3,354 484.1,354.7 484.1,355.7C484.1,356.6 483.4,357.4 482.4,357.4L472.5,357.4C471.5,357.3 470.8,356.6 470.8,355.7Z" style="fill:rgb(229,229,229);fill-rule:nonzero;"/>
    </g>
    <g id="XMLID_164_" transform="matrix(1.62935,0,0,1.62935,-316.182,-308.528)">
        <path d="M441.5,337.8L438.5,337.8C437.4,337.8 436.5,336.9 436.5,335.8C436.5,334.7 437.4,333.8 438.5,333.8L441.5,333.8C442.6,333.8 443.5,334.7 443.5,335.8C443.5,336.9 442.6,337.8 441.5,337.8Z" style="fill:rgb(229,229,229);fill-rule:nonzero;"/>
    </g>
    <g id="XMLID_143_">
        <g id="XMLID_4_" transform="matrix(1.62935,0,0,1.62935,-316.182,-308.528)">
            <path d="M682.2,562.9L678,556C677.1,554.5 677.6,552.5 679.1,551.5C680.6,550.6 682.6,551.1 683.6,552.6L687.8,559.5C688.7,561 688.2,563 686.7,564C685.1,565 683.1,564.5 682.2,562.9Z" style="fill:rgb(77,77,97);fill-rule:nonzero;"/>
        </g>
        <g transform="matrix(1.62935,0,0,1.62935,-316.182,-308.528)">
            <path d="M690.2,560.3L683.4,556C681.9,555 681.4,553 682.4,551.5C683.4,550 685.4,549.5 686.9,550.5L693.7,554.8C695.2,555.8 695.7,557.8 694.7,559.3C693.8,560.8 691.8,561.2 690.2,560.3Z" style="fill:rgb(77,77,97);fill-rule:nonzero;"/>
        </g>
        <g transform="matrix(1.62935,0,0,1.62935,-316.182,-308.528)">
            <path d="M695.7,554.9L687.7,553.8C685.9,553.6 684.7,551.9 684.9,550.1C685.1,548.3 686.8,547.1 688.6,547.3L696.6,548.4C698.4,548.6 699.6,550.3 699.4,552.1C699.1,553.9 697.5,555.1 695.7,554.9Z" style="fill:rgb(77,77,97);fill-rule:nonzero;"/>
        </g>
        <g transform="matrix(1.62935,0,0,1.62935,-316.182,-308.528)">
            <path d="M698.5,548.3L690.5,549.4C688.7,549.7 687.1,548.4 686.8,546.6C686.5,544.8 687.8,543.2 689.6,542.9L697.6,541.8C699.4,541.5 701,542.8 701.3,544.6C701.5,546.4 700.3,548 698.5,548.3Z" style="fill:rgb(77,77,97);fill-rule:nonzero;"/>
        </g>
        <g transform="matrix(1.62935,0,0,1.62935,-316.182,-308.528)">
            <path d="M699.7,541.5L692,543.9C690.3,544.4 688.5,543.5 687.9,541.7C687.4,540 688.3,538.2 690.1,537.6L697.8,535.2C699.5,534.7 701.3,535.6 701.9,537.4C702.3,539.2 701.4,541 699.7,541.5Z" style="fill:rgb(77,77,97);fill-rule:nonzero;"/>
        </g>
        <g transform="matrix(1.62935,0,0,1.62935,-316.182,-308.528)">
            <path d="M699.9,534.5L692.4,537.4C690.7,538 688.8,537.2 688.2,535.5C687.6,533.8 688.4,531.9 690.1,531.3L697.6,528.4C699.3,527.8 701.2,528.6 701.8,530.3C702.4,532 701.6,533.8 699.9,534.5Z" style="fill:rgb(77,77,97);fill-rule:nonzero;"/>
        </g>
        <g transform="matrix(1.62935,0,0,1.62935,-316.182,-308.528)">
            <path d="M699.7,527.5L692.5,531.2C690.9,532 688.9,531.4 688.1,529.8C687.3,528.2 687.9,526.2 689.5,525.4L696.7,521.7C698.3,520.9 700.3,521.5 701.1,523.1C701.9,524.7 701.3,526.7 699.7,527.5Z" style="fill:rgb(77,77,97);fill-rule:nonzero;"/>
        </g>
        <g id="XMLID_3_" transform="matrix(1.62935,0,0,1.62935,-316.182,-308.528)">
            <path d="M699.1,522.8L691.9,526.5C690.3,527.3 688.3,526.7 687.5,525.1C686.7,523.5 687.3,521.5 688.9,520.7L696.1,517C697.7,516.2 699.7,516.8 700.5,518.4C701.3,520 700.7,522 699.1,522.8Z" style="fill:rgb(77,77,97);fill-rule:nonzero;"/>
        </g>
    </g>
    <g id="XMLID_112_" transform="matrix(1.62935,0,0,1.62935,-316.182,-308.528)">
        <path d="M507.1,396.8C499.8,396.8 493.9,402.7 493.9,410C493.9,417.3 499.8,423.2 507.1,423.2C514.4,423.2 520.3,417.3 520.3,410C520.3,402.7 514.4,396.8 507.1,396.8ZM507.1,418.1C502.7,418.1 499.1,414.5 499.1,410.1C499.1,405.7 502.7,402.1 507.1,402.1C511.5,402.1 515.1,405.7 515.1,410.1C515.1,414.5 511.5,418.1 507.1,418.1Z" style="fill:none;fill-rule:nonzero;stroke:rgb(77,77,97);stroke-width:3px;"/>
    </g>
    <g id="XMLID_105_" transform="matrix(1.62935,0,0,1.62935,-316.182,-308.528)">
        <path d="M518,403.1L506.6,403.1C503.6,403.1 501.6,406.3 503.1,409C505.2,413 509.5,415.8 514.4,415.8L515.7,415.8L515.7,430.8L529.4,430.8L529.4,414.4C529.3,408.2 524.2,403.1 518,403.1Z" style="fill:rgb(247,227,203);fill-rule:nonzero;"/>
    </g>
    <g id="XMLID_114_" transform="matrix(1.62935,0,0,1.62935,-316.182,-308.528)">
        <path d="M518,403.1L512.3,403.1C518.6,403.1 523.7,408.2 523.7,414.5L523.7,430.9L529.4,430.9L529.4,414.5C529.3,408.2 524.2,403.1 518,403.1Z" style="fill:rgb(237,214,188);fill-rule:nonzero;"/>
    </g>
    <g id="XMLID_108_" transform="matrix(1.62935,0,0,1.62935,-316.182,-308.528)">
        <path d="M518,403.1L505.1,403.1C503,403.1 501.6,405.1 502.2,407C503.9,412.1 508.7,415.8 514.3,415.8L515.6,415.8L515.6,430.8L529.3,430.8L529.3,414.4C529.3,408.2 524.2,403.1 518,403.1Z" style="fill:none;fill-rule:nonzero;stroke:rgb(77,77,97);stroke-width:3px;"/>
    </g>
    <g id="XMLID_5_" transform="matrix(1.62935,0,0,1.62935,-316.182,-308.528)">
        <path d="M479.5,428.9L498.7,428.9C502.9,428.9 506.4,425.5 506.4,421.2L506.4,391.3L471.8,391.3L471.8,421.2C471.8,425.4 475.2,428.9 479.5,428.9Z" style="fill:rgb(255,214,128);fill-rule:nonzero;"/>
    </g>
    <g id="XMLID_93_" transform="matrix(1.62935,0,0,1.62935,-316.182,-308.528)">
        <path d="M471.8,418.1L476.3,418.1C482.5,418.1 487.4,413.1 487.4,407L487.4,402.7L489.7,404.5" style="fill:none;fill-rule:nonzero;stroke:rgb(77,77,97);stroke-width:2px;"/>
    </g>
    <g id="XMLID_122_" transform="matrix(1.62935,0,0,1.62935,-316.182,-308.528)">
        <path d="M496.3,391.2L496.3,421.1C496.3,425.3 492.9,428.8 488.6,428.8L498.6,428.8C502.8,428.8 506.3,425.4 506.3,421.1L506.3,391.2L496.3,391.2Z" style="fill:rgb(234,189,108);fill-rule:nonzero;"/>
    </g>
    <g id="XMLID_104_" transform="matrix(1.62935,0,0,1.62935,-316.182,-308.528)">
        <path d="M479.5,428.9L498.7,428.9C502.9,428.9 506.4,425.5 506.4,421.2L506.4,391.3L471.8,391.3L471.8,421.2C471.8,425.4 475.2,428.9 479.5,428.9Z" style="fill:none;fill-rule:nonzero;stroke:rgb(77,77,97);stroke-width:3px;"/>
    </g>
    <g id="XMLID_98_" transform="matrix(1.62935,0,0,1.62935,-316.182,-308.528)">
        <path d="M564.7,431.9L569.7,442.2L577.1,437.1L564.7,431.9Z" style="fill:rgb(202,67,97);fill-rule:nonzero;"/>
    </g>
    <g id="XMLID_101_" transform="matrix(1.62935,0,0,1.62935,-316.182,-308.528)">
        <path d="M564.7,431.9L569.7,442.2L577.1,437.1L564.7,431.9Z" style="fill:none;fill-rule:nonzero;stroke:rgb(77,77,97);stroke-width:2px;"/>
    </g>
    <g id="XMLID_79_" transform="matrix(-1.38413,0.859644,-0.859644,-1.38413,1901.96,1068.96)">
        <rect x="552.1" y="562.9" width="16.1" height="108.1" style="fill:rgb(247,227,203);"/>
    </g>
    <g id="XMLID_49_" transform="matrix(-1.38413,0.859644,-0.859644,-1.38413,1901.96,1068.96)">
        <rect x="552.1" y="562.9" width="16.1" height="108.1" style="fill:none;stroke:rgb(77,77,97);stroke-width:3px;"/>
    </g>
    <g id="XMLID_50_" transform="matrix(1.62935,0,0,1.62935,-316.182,-308.528)">
        <path d="M375.6,640L481.5,554.8L491.7,567.1L385.8,652.4L375.6,640Z" style="fill:rgb(247,227,203);fill-rule:nonzero;"/>
    </g>
    <g id="XMLID_138_" transform="matrix(1.62935,0,0,1.62935,-316.182,-308.528)">
        <path d="M387.2,630.7L396.9,643.5L406.5,636L396.8,622.9L387.2,630.7Z" style="fill:rgb(237,214,188);fill-rule:nonzero;"/>
    </g>
    <g id="XMLID_77_" transform="matrix(1.62935,0,0,1.62935,-316.182,-308.528)">
        <path d="M375.6,640L481.5,554.8L491.7,567.1L385.8,652.4L375.6,640Z" style="fill:none;fill-rule:nonzero;stroke:rgb(77,77,97);stroke-width:3px;"/>
    </g>
    <g id="XMLID_64_" transform="matrix(1.62935,0,0,1.62935,-316.182,-308.528)">
        <path d="M603.5,431.9L595.9,423.1C592.7,419.4 587.1,419 583.4,422.1C579.6,425.3 579.2,431 582.4,434.7L590,443.5C602,457.4 600.5,478.5 586.5,490.5C572.6,502.5 551.5,501 539.5,487C534.3,480.9 531.4,473.2 531.4,465.2L531.4,429L513.6,429L513.6,465.3C513.6,477.6 518,489.4 526,498.7C544.5,520.1 576.8,522.5 598.2,504C619.6,485.7 621.9,453.3 603.5,431.9Z" style="fill:none;fill-rule:nonzero;stroke:rgb(77,77,97);stroke-width:3px;"/>
    </g>
    <g id="XMLID_102_" transform="matrix(1.62935,0,0,1.62935,-316.182,-308.528)">
        <path d="M574.8,437.1C574.8,437.1 586.3,448.6 593.7,459C601,469.3 606.4,483 606.4,485.7C610.6,488.4 611.7,489.9 612.4,489.2C613.1,488.5 613.1,484.5 613.1,481C613.1,477.4 580.6,433.2 574.8,437.1Z" style="fill:rgb(202,67,97);fill-rule:nonzero;"/>
    </g>
    <g id="XMLID_103_" transform="matrix(1.62935,0,0,1.62935,-316.182,-308.528)">
        <path d="M574.8,437.1C574.8,437.1 586.3,448.6 593.7,459C601,469.3 606.4,483 606.4,485.7C610.6,488.4 611.7,489.9 612.4,489.2C613.1,488.5 613.1,484.5 613.1,481C613.1,477.4 580.6,433.2 574.8,437.1Z" style="fill:none;fill-rule:nonzero;stroke:rgb(77,77,97);stroke-width:2px;"/>
    </g>
    <g id="XMLID_135_" transform="matrix(1.62935,0,0,1.62935,-316.182,-308.528)">
        <path d="M609.8,669.3L531.7,693C530.3,693.4 528.8,692.6 528.3,691.2L528.2,691C527.8,689.6 528.6,688.1 530,687.6L608.1,663.9C609.5,663.5 611,664.3 611.5,665.7L611.6,665.9C612,667.4 611.2,668.9 609.8,669.3Z" style="fill:rgb(89,93,92);fill-rule:nonzero;"/>
    </g>
    <g id="XMLID_134_" transform="matrix(1.62935,0,0,1.62935,-316.182,-308.528)">
        <path d="M609.8,669.3L531.7,693C530.3,693.4 528.8,692.6 528.3,691.2L528.2,691C527.8,689.6 528.6,688.1 530,687.6L608.1,663.9C609.5,663.5 611,664.3 611.5,665.7L611.6,665.9C612,667.4 611.2,668.9 609.8,669.3Z" style="fill:none;fill-rule:nonzero;stroke:rgb(77,77,97);stroke-width:3px;"/>
    </g>
    <g id="XMLID_133_" transform="matrix(1.62935,0,0,1.62935,-316.182,-308.528)">
        <path d="M597.3,649.2L597,649.3C595.3,652.3 591.7,655 587.1,656.4C583.7,657.4 580.3,657.6 577.5,656.9C575,656.3 572.4,656.2 569.9,656.9L539.1,665.5C535.4,666.5 532.5,669.3 531,673.2L527.7,681.8C526.6,684.7 529.1,688 531.8,687.2L607.4,664.2L604.2,653.8C603.2,650.5 600.1,648.5 597.3,649.2Z" style="fill:rgb(155,132,98);fill-rule:nonzero;"/>
    </g>
    <g id="XMLID_132_" transform="matrix(1.62935,0,0,1.62935,-316.182,-308.528)">
        <path d="M531,673.3L530.5,674.7C533.1,676.7 536.6,677.5 540.1,676.5L587.3,662.1C591.8,660.7 594.6,656.7 594.7,652.2C592.8,654 590.2,655.5 587.2,656.4C583.8,657.4 580.4,657.6 577.6,656.9C575.1,656.3 572.5,656.2 570,656.9L539.2,665.5C535.4,666.5 532.5,669.3 531,673.3Z" style="fill:rgb(225,200,133);fill-rule:nonzero;"/>
    </g>
    <g id="XMLID_131_" transform="matrix(1.62935,0,0,1.62935,-316.182,-308.528)">
        <path d="M597.3,649.2L597,649.3C595.3,652.3 591.7,655 587.1,656.4C583.7,657.4 580.3,657.6 577.5,656.9C575,656.3 572.4,656.2 569.9,656.9L539.1,665.5C535.4,666.5 532.5,669.3 531,673.2L527.7,681.8C526.6,684.7 529.1,688 531.8,687.2L607.4,664.2L604.2,653.8C603.2,650.5 600.1,648.5 597.3,649.2Z" style="fill:none;fill-rule:nonzero;stroke:rgb(77,77,97);stroke-width:3px;"/>
    </g>
    <g id="XMLID_100_" transform="matrix(1.62935,0,0,1.62935,-316.182,-308.528)">
        <path d="M569.9,665.9L575.2,656.5L571.2,656.6L569.9,665.9Z" style="fill:none;fill-rule:nonzero;stroke:rgb(77,77,97);stroke-width:3px;"/>
    </g>
    <g id="XMLID_7_" transform="matrix(1.62935,0,0,1.62935,-316.182,-308.528)">
        <path d="M555,411.2C597.6,437.8 626.9,480.7 636.7,529.3L650.5,529.3C642.7,479.7 614.6,435.5 572.7,407.3" style="fill:rgb(247,227,203);fill-rule:nonzero;"/>
    </g>
    <g id="XMLID_10_" transform="matrix(1.62935,0,0,1.62935,-316.182,-308.528)">
        <path d="M638.1,581.1L649.2,573.9L593.1,573.9L604.2,581.1C614.6,587.8 627.8,587.8 638.1,581.1Z" style="fill:none;fill-rule:nonzero;stroke:rgb(77,77,97);stroke-width:3px;"/>
    </g>
    <g id="XMLID_2_" transform="matrix(1.62935,0,0,1.62935,-316.182,-308.528)">
        <path d="M638.1,581.1L649.2,573.9L593.1,573.9L604.2,581.1C614.6,587.8 627.8,587.8 638.1,581.1Z" style="fill:rgb(77,77,97);fill-rule:nonzero;"/>
    </g>
    <g id="XMLID_26_" transform="matrix(1.62935,0,0,1.62935,-316.182,-308.528)">
        <path d="M569.5,408.8C581,404 589.2,392.6 589.2,379.3L589.2,368.5L591.4,368.5C599,368.5 605.2,362.3 605.2,354.7C605.2,347.1 599.9,340 592.2,340L588.5,340.3L589.1,323.3C589.1,305.6 574.8,291.3 557.1,291.3C539.4,291.3 525.1,305.6 525.1,323.3L525.1,340.8L515.6,340.8C512.7,340.8 510.3,343.2 510.3,346.1C510.3,353.9 516.6,360.3 524.5,360.3L525.2,360.3L525.2,379.3C525.2,396.2 538.4,410.1 555,411.2" style="fill:rgb(247,227,203);fill-rule:nonzero;"/>
    </g>
    <g id="XMLID_1_" transform="matrix(1.62935,0,0,1.62935,-316.182,-308.528)">
        <path d="M671.4,554.6L563.5,554.6C563.1,554.6 562.8,554.6 562.4,554.7C554.1,555.3 547.6,562.6 548.2,571.2C548.7,578.9 555.1,585.2 562.9,585.6C566,585.7 568.9,585 571.3,583.6C581.5,577.7 592.9,574.1 604.8,574.1L671.4,574.1C676.7,574.1 681,569.8 681,564.5C681.1,559 676.7,554.6 671.4,554.6Z" style="fill:rgb(202,67,97);fill-rule:nonzero;"/>
    </g>
    <g id="XMLID_163_" transform="matrix(1.62935,0,0,1.62935,-316.182,-308.528)">
        <path d="M564.8,576.5C564.2,567.9 570.7,560.7 579,560C579.3,560 579.7,559.9 580.1,559.9L680.1,559.9C678.5,556.7 675.3,554.6 671.5,554.6L563.5,554.6C563.1,554.6 562.8,554.6 562.4,554.7C554.1,555.3 547.6,562.6 548.2,571.2C548.7,578.9 555.1,585.2 562.9,585.6C564.7,585.7 566.4,585.5 568,585C566.2,582.5 565,579.6 564.8,576.5Z" style="fill:rgb(211,83,117);fill-rule:nonzero;"/>
    </g>
    <g id="XMLID_39_" transform="matrix(1.62935,0,0,1.62935,-316.182,-308.528)">
        <path d="M671.4,554.6L563.5,554.6C563.1,554.6 562.8,554.6 562.4,554.7C554.1,555.3 547.6,562.6 548.2,571.2C548.7,578.9 555.1,585.2 562.9,585.6C566,585.7 568.9,585 571.3,583.6C581.5,577.7 592.9,574.1 604.8,574.1L671.4,574.1C676.7,574.1 681,569.8 681,564.5C681.1,559 676.7,554.6 671.4,554.6Z" style="fill:none;fill-rule:nonzero;stroke:rgb(77,77,97);stroke-width:3px;"/>
    </g>
    <g id="XMLID_15_" transform="matrix(-0.599926,1.51481,-1.51481,-0.599926,2145.41,218.733)">
        <rect x="641.8" y="659.1" width="7.4" height="32" style="fill:rgb(77,77,97);"/>
    </g>
    <g id="XMLID_20_" transform="matrix(1.62935,0,0,1.62935,-316.182,-308.528)">
        <path d="M584.8,684.4L582.1,677.6L608.4,667.2C610.3,666.5 612.4,667.4 613.2,669.3C613.9,671.2 613,673.3 611.1,674.1L584.8,684.4Z" style="fill:rgb(77,77,97);fill-rule:nonzero;"/>
    </g>
    <g id="XMLID_28_" transform="matrix(1.62935,0,0,1.62935,-316.182,-308.528)">
        <path d="M604.8,357.5L600.2,382.1C598.3,392 589.2,398.8 579.2,397.6L579.1,397.6L590.9,347.9L604.8,357.5Z" style="fill:rgb(163,136,108);fill-rule:nonzero;"/>
    </g>
    <g id="XMLID_36_" transform="matrix(1.62935,0,0,1.62935,-316.182,-308.528)">
        <path d="M604.8,357.5L600.2,382.1C598.3,392 589.2,398.8 579.2,397.6L579.1,397.6L590.9,347.9L604.8,357.5Z" style="fill:none;fill-rule:nonzero;stroke:rgb(77,77,97);stroke-width:3px;"/>
    </g>
    <g id="XMLID_35_" transform="matrix(1.62935,0,0,1.62935,-316.182,-308.528)">
        <path d="M525.1,362L525.1,359.7C525.1,356.5 522.3,354.1 519.2,354.7L515.5,356L525.1,362Z" style="fill:rgb(237,214,188);fill-rule:nonzero;"/>
    </g>
    <g id="XMLID_40_" transform="matrix(1.62935,0,0,1.62935,-316.182,-308.528)">
        <path d="M590.9,340.8L589.1,340.8L589.1,323.7C581.4,335.6 569.4,351.3 569.4,351.3L569.4,372.8C569.4,388.5 556.7,401.2 541,401.2L533.7,401.2C539.5,407.4 547.8,411.3 557,411.3C574.7,411.3 589,397 589,379.3L589,368.5L591.2,368.5C599.1,368.5 605.4,361.9 605,354C604.8,346.5 598.3,340.8 590.9,340.8Z" style="fill:rgb(237,214,188);fill-rule:nonzero;"/>
    </g>
    <g id="XMLID_46_" transform="matrix(1.62935,0,0,1.62935,-316.182,-308.528)">
        <path d="M572.7,407.3C582.5,401.8 589.2,391.4 589.2,379.3L589.2,368.5L591.4,368.5C599,368.5 605.2,362.3 605.2,354.7C605.2,347.1 599.9,340 592.2,340L588.5,340.3L589.1,323.3C589.1,305.6 574.8,291.3 557.1,291.3C539.4,291.3 525.1,305.6 525.1,323.3L525.1,340.8L515.6,340.8C512.7,340.8 510.3,343.2 510.3,346.1C510.3,353.9 516.6,360.3 524.5,360.3L525.2,360.3L525.2,379.3C525.2,396.2 538.4,410.1 555,411.2" style="fill:none;fill-rule:nonzero;stroke:rgb(77,77,97);stroke-width:3px;"/>
    </g>
    <g id="XMLID_24_" transform="matrix(1.62935,0,0,1.62935,-316.182,-308.528)">
        <circle cx="537.6" cy="333.8" r="2" style="fill:none;stroke:rgb(77,77,97);stroke-width:2px;stroke-linecap:butt;stroke-linejoin:miter;"/>
    </g>
    <g id="XMLID_31_" transform="matrix(1.62935,0,0,1.62935,-316.182,-308.528)">
        <path d="M556.5,354.2L556.5,370.4C556.5,380.7 548.1,389.1 537.8,389.1C530.8,389.1 525.2,383.4 525.2,376.5" style="fill:none;fill-rule:nonzero;stroke:rgb(77,77,97);stroke-width:2px;"/>
    </g>
    <g id="XMLID_30_" transform="matrix(1.62935,0,0,1.62935,-316.182,-308.528)">
        <path d="M554.7,353.3L558.3,355.2" style="fill:none;fill-rule:nonzero;stroke:rgb(77,77,97);stroke-width:2px;"/>
    </g>
    <g id="XMLID_32_" transform="matrix(1.62935,0,0,1.62935,-316.182,-308.528)">
        <path d="M541.7,315L538.1,322L552.2,330.6L553.1,324.6L541.7,315Z" style="fill:rgb(176,151,122);fill-rule:nonzero;"/>
    </g>
    <g id="XMLID_41_" transform="matrix(1.62935,0,0,1.62935,-316.182,-308.528)">
        <path d="M541.7,315L540.6,317.2C544.5,318.3 547.4,321.7 547.4,325.9C547.4,326.5 547.3,327.1 547.2,327.6L552.2,330.7L553.1,324.7L541.7,315Z" style="fill:rgb(163,136,108);fill-rule:nonzero;"/>
    </g>
    <g id="XMLID_23_" transform="matrix(1.62935,0,0,1.62935,-316.182,-308.528)">
        <path d="M541.7,315L538.1,322L552.2,330.6L553.1,324.6L541.7,315Z" style="fill:none;fill-rule:nonzero;stroke:rgb(77,77,97);stroke-width:2px;"/>
    </g>
    <g id="XMLID_22_" transform="matrix(1.62935,0,0,1.62935,-316.182,-308.528)">
        <path d="M610.4,305.7C613.8,307.8 615.3,308.4 618.6,308.4C612.9,300.4 611.5,284.7 603,274.8C599.2,270.3 594.9,265.4 586.7,262.9C572.6,258.7 559.3,263.4 557.6,264.3C547.3,269.8 537,282.4 540,293.2C540.3,294.4 539.3,295.2 540,296.1C551.3,287.5 569.1,290.1 577.5,301.7C584.2,310.9 582.4,325.9 575.9,334.5C574,336.4 573.2,342.8 570.4,349.2L577.9,344.6C585.6,339.9 597.2,341.3 603.6,347.7C604.7,349.6 605.4,351.6 605.7,353.6C606.5,353.1 607.5,352.5 608.7,351.5C616.1,345.3 617.4,335.9 617.7,333.5C619.9,319.3 612,307.5 610.4,305.7Z" style="fill:rgb(176,151,122);fill-rule:nonzero;"/>
    </g>
    <g id="XMLID_42_" transform="matrix(1.62935,0,0,1.62935,-316.182,-308.528)">
        <path d="M618.7,308.5C613,300.5 611.6,284.8 603.1,274.9C599.8,271 596.1,266.7 589.7,264.1C596.7,272.2 601,282.8 601,294.4C601,312.6 590.5,328.3 575.2,335.9C573.8,338.6 572.9,344 570.5,349.4L578,344.8C585.7,340.1 597.3,341.5 603.7,347.9C604.8,349.8 605.5,351.8 605.8,353.8C606.6,353.3 607.6,352.7 608.8,351.7C616.2,345.5 617.5,336.1 617.8,333.7C619.8,319.4 611.8,307.5 610.3,305.8C613.9,307.9 615.4,308.5 618.7,308.5Z" style="fill:rgb(163,136,108);fill-rule:nonzero;"/>
    </g>
    <g id="XMLID_33_" transform="matrix(1.62935,0,0,1.62935,-316.182,-308.528)">
        <path d="M610.4,305.7C613.8,307.8 615.3,308.4 618.6,308.4C612.9,300.4 611.5,284.7 603,274.8C599.2,270.3 594.9,265.4 586.7,262.9C572.6,258.7 559.3,263.4 557.6,264.3C547.3,269.8 537,282.4 540,293.2C540.3,294.4 539.3,295.2 540,296.1C551.3,287.5 569.1,290.1 577.5,301.7C584.2,310.9 582.4,325.9 575.9,334.5C574,336.4 573.2,342.8 570.4,349.2L581.7,342.4C589.2,337.8 599.1,340.2 603.6,347.8C604.7,349.7 605.4,351.7 605.7,353.7C606.5,353.2 607.5,352.6 608.7,351.6C616.1,345.4 617.4,336 617.7,333.6C619.9,319.3 612,307.5 610.4,305.7Z" style="fill:none;fill-rule:nonzero;stroke:rgb(77,77,97);stroke-width:3px;"/>
    </g>
    <g id="XMLID_25_" transform="matrix(1.62935,0,0,1.62935,-316.182,-308.528)">
        <path d="M585,349.9L596.9,358.4" style="fill:none;fill-rule:nonzero;stroke:rgb(77,77,97);stroke-width:2px;"/>
    </g>
    <g id="XMLID_29_" transform="matrix(1.62935,0,0,1.62935,-316.182,-308.528)">
        <path d="M595.4,347.9L586.9,359.8" style="fill:none;fill-rule:nonzero;stroke:rgb(77,77,97);stroke-width:2px;"/>
    </g>
    <g id="XMLID_38_" transform="matrix(1.62935,0,0,1.62935,-316.182,-308.528)">
        <path d="M527.4,356.5L528.5,357.5C528.5,357.5 530.5,355.4 533.1,356.5C532.4,355.1 526.6,354.4 527.4,356.5Z" style="fill:none;fill-rule:nonzero;stroke:rgb(77,77,97);stroke-width:2px;"/>
    </g>
    <g id="XMLID_71_" transform="matrix(1.62935,0,0,1.62935,-316.182,-308.528)">
        <path d="M555,411.2C597.6,437.8 626.9,480.7 636.7,529.3L650.5,529.3C642.7,479.7 614.6,435.5 572.7,407.3" style="fill:none;fill-rule:nonzero;stroke:rgb(77,77,97);stroke-width:3px;"/>
    </g>
    <g id="XMLID_78_" transform="matrix(-0.859807,-1.38413,1.38413,-0.859807,219.174,1926.07)">
        <rect x="487.6" y="582.3" width="116.1" height="24.1" style="fill:rgb(71,92,128);"/>
    </g>
    <g id="XMLID_146_" transform="matrix(1.62935,0,0,1.62935,-316.182,-308.528)">
        <path d="M516.8,571.6L560.9,641.9C563.7,640.1 572.2,644 570.4,641.2L530.1,580.9C528.3,578.1 520.6,570.8 517.7,572.6L516.8,571.6Z" style="fill:rgb(105,135,175);fill-opacity:0.57;fill-rule:nonzero;"/>
    </g>
    <g id="XMLID_137_" transform="matrix(1.62935,0,0,1.62935,-316.182,-308.528)">
        <path d="M514.9,567.8C514.9,567.8 533.8,561.9 540.3,563.1C533.7,550.4 531.3,547.9 531.3,547.9L506,556.1L514.9,567.8Z" style="fill:rgb(77,77,97);fill-rule:nonzero;"/>
    </g>
    <g id="XMLID_43_" transform="matrix(-0.859807,-1.38413,1.38413,-0.859807,219.174,1926.07)">
        <rect x="487.6" y="582.3" width="116.1" height="24.1" style="fill:none;stroke:rgb(77,77,97);stroke-width:3px;"/>
    </g>
    <g id="XMLID_76_" transform="matrix(1.62935,0,0,1.62935,-316.182,-308.528)">
        <path d="M468.1,559.2L391,622.8L406.3,641.4L476.7,583.3C499.3,564.6 527.8,554.4 557.1,554.4L644.4,554.4C651,554.4 656.4,549 656.4,542.4L656.4,530.4L548.4,530.4C519.1,530.3 490.7,540.5 468.1,559.2Z" style="fill:rgb(71,92,128);fill-rule:nonzero;"/>
    </g>
    <g id="XMLID_174_" transform="matrix(1.62935,0,0,1.62935,-316.182,-308.528)">
        <path d="M395.8,618.8L402.6,628.3L483.1,556.2L479,551.1C475.2,553.6 471.6,556.3 468.1,559.2L395.8,618.8Z" style="fill:rgb(105,135,175);fill-opacity:0.57;fill-rule:nonzero;"/>
    </g>
    <g id="XMLID_140_" transform="matrix(1.62935,0,0,1.62935,-316.182,-308.528)">
        <path d="M531,536.5L621.1,537.7C625.8,537.7 641.6,534.9 641.6,530.2L548.6,530.2C539,530.2 508.8,534.9 497.7,540.9C494.8,542.5 517.5,536.5 531,536.5Z" style="fill:rgb(105,135,175);fill-opacity:0.57;fill-rule:nonzero;"/>
    </g>
    <g id="XMLID_48_" transform="matrix(1.62935,0,0,1.62935,-316.182,-308.528)">
        <path d="M468.1,559.2L391,622.8L406.3,641.4L476.7,583.3C499.3,564.6 527.8,554.4 557.1,554.4L644.4,554.4C651,554.4 656.4,549 656.4,542.4L656.4,530.4L548.4,530.4C519.1,530.3 490.7,540.5 468.1,559.2Z" style="fill:none;fill-rule:nonzero;stroke:rgb(77,77,97);stroke-width:3px;"/>
    </g>
    <g id="XMLID_37_" transform="matrix(1.62935,0,0,1.62935,-316.182,-308.528)">
        <path d="M656.5,529.3C649.6,484.3 626.3,443.2 591.6,414.1L569.7,429.3C600.8,454.7 622.3,490.1 630.5,529.3L656.5,529.3Z" style="fill:rgb(229,229,229);fill-rule:nonzero;"/>
    </g>
    <g id="XMLID_123_" transform="matrix(1.62935,0,0,1.62935,-316.182,-308.528)">
        <path d="M630.5,529.3L641.5,529.3C633,487.9 610.6,450.4 578.3,423.3L569.7,429.3C600.8,454.6 622.3,490.1 630.5,529.3Z" style="fill:white;fill-rule:nonzero;"/>
    </g>
    <g id="XMLID_47_" transform="matrix(1.62935,0,0,1.62935,-316.182,-308.528)">
        <path d="M656.5,529.3C649.6,484.3 626.3,443.2 591.6,414.1L569.7,429.3C600.8,454.7 622.3,490.1 630.5,529.3L656.5,529.3Z" style="fill:none;fill-rule:nonzero;stroke:rgb(77,77,97);stroke-width:3px;"/>
    </g>
    <g id="XMLID_95_" transform="matrix(1.62935,0,0,1.62935,-316.182,-308.528)">
        <path d="M496.7,459.9C496.7,459.9 488.4,466.8 489.1,452.6C489.4,446.1 497.9,446.3 497.9,446.3L498.8,452.4L496.7,459.9Z" style="fill:rgb(176,151,122);fill-rule:nonzero;"/>
    </g>
    <g id="XMLID_94_" transform="matrix(1.62935,0,0,1.62935,-316.182,-308.528)">
        <path d="M496.7,459.9C496.7,459.9 488.4,466.8 489.1,452.6C489.4,446.1 497.9,446.3 497.9,446.3L498.8,452.4L496.7,459.9Z" style="fill:none;fill-rule:nonzero;stroke:rgb(77,77,97);stroke-width:3px;"/>
    </g>
    <g id="XMLID_60_" transform="matrix(1.62935,0,0,1.62935,-316.182,-308.528)">
        <path d="M521.2,444.5C517.2,450.1 511,453.7 504.1,454.4C498.9,454.9 499,442.9 490.9,457.1C487.7,458.8 483.9,455.4 482.2,453.4C481.7,452.8 481.7,451.9 482.3,451.4C483.8,450.1 486.6,447 487.9,441.6C488.8,436.4 490.5,432.6 494.6,434.8C498.2,436.7 520.6,434 521.2,444.5Z" style="fill:rgb(237,214,188);fill-rule:nonzero;"/>
    </g>
    <g id="XMLID_91_" transform="matrix(1.62935,0,0,1.62935,-316.182,-308.528)">
        <path d="M521.2,444.5C517.2,450.1 511,453.7 504.1,454.4C498.9,454.9 499,442.9 490.9,457.1C487.7,458.8 484,455.4 482.2,453.5C481.6,452.9 481.7,451.9 482.3,451.4C483.9,450 486.6,447 487.8,441.6C488.7,436.4 490.4,432.6 494.5,434.8C498.2,436.7 520.6,434 521.2,444.5Z" style="fill:none;fill-rule:nonzero;stroke:rgb(77,77,97);stroke-width:3px;"/>
    </g>
    <g id="XMLID_89_" transform="matrix(1.62935,0,0,1.62935,-316.182,-308.528)">
        <path d="M524.1,456.3C524.1,456.3 521.2,447.9 513.4,443.9C512.6,447 508.6,450.1 504.7,451.2L506.9,455C508.6,458.1 507.2,462 503.9,463.1C501,464.1 497.9,462.7 496.7,459.9L491.8,445C491.8,445 501.4,441.5 504.3,438.5C506.3,436.5 511,429 511,429C511,429 519.7,431.1 525.6,437C530.5,441.9 534.9,450.2 534.9,450.2L524.1,456.3Z" style="fill:rgb(237,214,188);fill-rule:nonzero;"/>
    </g>
    <g id="XMLID_117_">
        <g id="XMLID_119_" transform="matrix(1.62935,0,0,1.62935,-316.182,-308.528)">
            <path d="M502.5,462.7L497.6,447.8C497.6,447.8 507.2,444.3 510.1,441.3C512.1,439.3 516.8,431.8 516.8,431.8C516.8,431.8 518.1,432.1 520.1,432.9C515.4,430.1 510.9,429 510.9,429C510.9,429 506.2,436.5 504.2,438.5C501.2,441.4 491.7,445 491.7,445L496.6,459.9C497.6,462.4 500.2,463.8 502.8,463.3C502.7,463.1 502.6,462.9 502.5,462.7Z" style="fill:rgb(247,227,203);fill-rule:nonzero;"/>
        </g>
        <g id="XMLID_120_" transform="matrix(1.62935,0,0,1.62935,-316.182,-308.528)">
            <path d="M519.2,446.7C519.1,447.1 518.9,447.5 518.7,447.9C522.5,451.9 524.1,456.3 524.1,456.3L527.5,454.4C525.8,451.8 523.1,448.7 519.2,446.7Z" style="fill:rgb(247,227,203);fill-rule:nonzero;"/>
        </g>
    </g>
    <g id="XMLID_90_" transform="matrix(1.62935,0,0,1.62935,-316.182,-308.528)">
        <path d="M524.1,456.3C524.1,456.3 521.2,447.9 513.4,443.9C512.6,447 508.6,450.1 504.7,451.2L506.9,455C508.6,458.1 507.2,462 503.9,463.1C501,464.1 497.9,462.7 496.7,459.9L491.8,445C491.8,445 501.4,441.5 504.3,438.5C506.3,436.5 511,429 511,429C511,429 519.7,431.1 525.6,437C530.5,441.9 534.9,450.2 534.9,450.2L524.1,456.3Z" style="fill:none;fill-rule:nonzero;stroke:rgb(77,77,97);stroke-width:3px;"/>
    </g>
    <g id="XMLID_92_" transform="matrix(1.62935,0,0,1.62935,-316.182,-308.528)">
        <path d="M496.7,457.1L499.7,456.2C499.7,456.2 501.2,457.7 501.2,459.1C501.2,460.5 497.7,461.6 497.7,461.6C497.7,461.6 495.4,458.3 496.7,457.1Z" style="fill:none;fill-rule:nonzero;stroke:rgb(77,77,97);stroke-width:2px;"/>
    </g>
    <g id="XMLID_106_" transform="matrix(1.62935,0,0,1.62935,-316.182,-308.528)">
        <path d="M485,448.8L487.4,450.8C487.4,450.8 487,452.9 485.8,453.6C484.7,454.3 481.8,452.1 481.8,452.1C481.8,452.1 483.3,448.4 485,448.8Z" style="fill:none;fill-rule:nonzero;stroke:rgb(77,77,97);stroke-width:2px;"/>
    </g>
    <g id="XMLID_74_" transform="matrix(1.62935,0,0,1.62935,-316.182,-308.528)">
        <path d="M536.6,448L562.1,496.9C565.8,504 571.9,509.5 579.4,512.5C596.5,519.3 615.9,510.9 622.7,493.8C629.5,476.7 621.1,457.3 604,450.5L593.2,446.2C588.6,444.4 586.4,439.1 588.2,434.6C590,430.1 595.2,427.9 599.8,429.7L610.6,434C636.9,444.4 649.7,474.2 639.3,500.4C628.9,526.7 599.1,539.5 572.9,529.1C561.5,524.6 552.1,516.1 546.4,505.2L521.3,457.1L536.6,448Z" style="fill:rgb(229,229,229);fill-rule:nonzero;"/>
    </g>
    <g id="XMLID_6_" transform="matrix(1.62935,0,0,1.62935,-316.182,-308.528)">
        <path d="M543.5,461.2L536.6,448L521.2,457.1L528,470.1L543.5,461.2Z" style="fill:rgb(229,229,229);fill-rule:nonzero;"/>
    </g>
    <g id="XMLID_118_" transform="matrix(1.62935,0,0,1.62935,-316.182,-308.528)">
        <path d="M521.2,457.1L546.3,505.2C547.2,506.9 548.2,508.6 549.3,510.2C548.7,506.7 552.3,514.2 552.3,514.2L526.7,453.7L521.2,457.1Z" style="fill:white;fill-rule:nonzero;"/>
    </g>
    <g id="XMLID_116_" transform="matrix(1.62935,0,0,1.62935,-316.182,-308.528)">
        <path d="M543.5,461.2L536.6,448L521.2,457.1L528,470.1L543.5,461.2Z" style="fill:none;fill-rule:nonzero;stroke:rgb(77,77,97);stroke-width:3px;"/>
    </g>
    <g id="XMLID_13_">
        <g id="XMLID_107_" transform="matrix(1.62935,0,0,1.62935,-316.182,-308.528)">
            <path d="M589.5,440.3C591.3,435.8 596.5,433.6 601.1,435.4L611.9,439.7C627.3,445.8 638.1,458.6 642.3,473.5C639.5,456.3 628,440.9 610.7,434L599.9,429.7C595.3,427.9 590.2,430.1 588.3,434.6C587.2,437.3 587.5,440.3 589,442.6C589,441.8 589.2,441.1 589.5,440.3Z" style="fill:white;fill-rule:nonzero;"/>
        </g>
        <g id="XMLID_113_" transform="matrix(1.62935,0,0,1.62935,-316.182,-308.528)">
            <path d="M537.9,450.5L558.8,498.2C564.1,507.8 570.6,515.3 578,518.2C595.1,525 617,516.6 623.8,499.5C626.7,492.1 626.8,484.3 624.6,477.3C625.3,482.7 624.7,488.4 622.5,493.8C615.7,510.9 596.3,519.3 579.2,512.5C571.8,509.5 565.6,504 561.9,496.9L536.6,448" style="fill:white;fill-rule:nonzero;"/>
        </g>
    </g>
    <g id="XMLID_62_" transform="matrix(1.62935,0,0,1.62935,-316.182,-308.528)">
        <path d="M536.6,448L562.1,496.9C565.8,504 571.9,509.5 579.4,512.5C596.5,519.3 615.9,510.9 622.7,493.8C629.5,476.7 621.1,457.3 604,450.5L593.2,446.2C588.6,444.4 586.4,439.1 588.2,434.6C590,430.1 595.2,427.9 599.8,429.7L610.6,434C636.9,444.4 649.7,474.2 639.3,500.4C628.9,526.7 599.1,539.5 572.9,529.1C561.5,524.6 552.1,516.1 546.4,505.2L521.3,457.1L536.6,448Z" style="fill:none;fill-rule:nonzero;stroke:rgb(77,77,97);stroke-width:3px;"/>
    </g>
    <g id="XMLID_72_" transform="matrix(1.62935,0,0,1.62935,-316.182,-308.528)">
        <path d="M592,411.3L575.9,439.2L557.7,427.2L584.6,408.3L592,411.3Z" style="fill:rgb(229,229,229);fill-rule:nonzero;"/>
    </g>
    <g id="XMLID_115_" transform="matrix(1.62935,0,0,1.62935,-316.182,-308.528)">
        <path d="M578.5,412.6L557.7,427.2L565.9,432.6C566,432.5 566.1,432.5 566.2,432.4C575.3,427.4 580.5,418.9 578.5,412.6Z" style="fill:white;fill-rule:nonzero;"/>
    </g>
    <g id="XMLID_34_" transform="matrix(1.62935,0,0,1.62935,-316.182,-308.528)">
        <path d="M592,411.3L575.9,439.2L557.7,427.2L584.6,408.3L592,411.3Z" style="fill:none;fill-rule:nonzero;stroke:rgb(77,77,97);stroke-width:3px;"/>
    </g>
    <g id="XMLID_80_" transform="matrix(1.62935,0,0,1.62935,-316.182,-308.528)">
        <circle cx="569.8" cy="684.8" r="19.6" style="fill:rgb(86,86,109);"/>
    </g>
    <g id="XMLID_170_" transform="matrix(1.62935,0,0,1.62935,-316.182,-308.528)">
        <path d="M558.5,694.6C558.5,683.8 567.3,675 578.1,675C581.7,675 585.1,676 588,677.7C585.1,670.4 578,665.2 569.7,665.2C558.9,665.2 550.1,674 550.1,684.8C550.1,692 554,698.3 559.8,701.7C559,699.5 558.5,697.1 558.5,694.6Z" style="fill:rgb(102,102,124);fill-opacity:0.44;fill-rule:nonzero;"/>
    </g>
    <g id="XMLID_19_" transform="matrix(1.62935,0,0,1.62935,-316.182,-308.528)">
        <circle cx="569.8" cy="684.8" r="19.6" style="fill:none;stroke:rgb(77,77,97);stroke-width:3px;"/>
    </g>
    <g id="XMLID_18_" transform="matrix(1.62935,0,0,1.62935,-316.182,-308.528)">
        <circle cx="569.8" cy="684.8" r="9.7" style="fill:none;stroke:rgb(77,77,97);stroke-width:3px;"/>
    </g>
    <g id="XMLID_81_" transform="matrix(1.62935,0,0,1.62935,-316.182,-308.528)">
        <circle cx="569.8" cy="684.8" r="9.7" style="fill:rgb(77,77,97);"/>
    </g>
    <g id="XMLID_82_" transform="matrix(1.62935,0,0,1.62935,-316.182,-308.528)">
        <path d="M592.6,675.1C589.3,675.1 586.3,673.7 584,671.3C580.4,667.5 575.4,665.2 569.8,665.2C564.3,665.2 559.4,667.4 555.8,671.1C553.3,673.6 550.1,675.1 546.6,675.1L546.5,675.1C550.3,666 559.3,659.6 569.8,659.6C580.3,659.6 589.3,666 593.1,675.1L592.6,675.1Z" style="fill:rgb(202,67,97);fill-rule:nonzero;"/>
    </g>
    <g id="XMLID_167_" transform="matrix(1.62935,0,0,1.62935,-316.182,-308.528)">
        <path d="M563.7,660.3C555.9,662.2 549.6,667.8 546.5,675.1L546.6,675.1C550,675.1 553.2,673.8 555.5,671.4C557.5,669.3 561.6,667.6 564.9,666.6C567.8,665.7 568,661.5 565.1,660.5C564.8,660.3 564.2,660.2 563.7,660.3Z" style="fill:rgb(211,83,117);fill-rule:nonzero;"/>
    </g>
    <g id="XMLID_17_" transform="matrix(1.62935,0,0,1.62935,-316.182,-308.528)">
        <path d="M592.6,675.1C589.3,675.1 586.3,673.7 584,671.3C580.4,667.5 575.4,665.2 569.8,665.2C564.3,665.2 559.4,667.4 555.8,671.1C553.3,673.6 550.1,675.1 546.6,675.1L546.5,675.1C550.3,666 559.3,659.6 569.8,659.6C580.3,659.6 589.3,666 593.1,675.1L592.6,675.1Z" style="fill:none;fill-rule:nonzero;stroke:rgb(77,77,97);stroke-width:3px;"/>
    </g>
    <g id="XMLID_87_" transform="matrix(1.62935,0,0,1.62935,-316.182,-308.528)">
        <circle cx="674.9" cy="684.8" r="19.6" style="fill:rgb(86,86,109);"/>
    </g>
    <g id="XMLID_166_" transform="matrix(1.62935,0,0,1.62935,-316.182,-308.528)">
        <path d="M664.3,694.6C664.3,683.8 673.1,675 683.9,675C687.5,675 690.9,676 693.8,677.7C690.9,670.4 683.8,665.2 675.5,665.2C664.7,665.2 655.9,674 655.9,684.8C655.9,692 659.8,698.3 665.6,701.7C664.8,699.5 664.3,697.1 664.3,694.6Z" style="fill:rgb(102,102,124);fill-opacity:0.44;fill-rule:nonzero;"/>
    </g>
    <g id="XMLID_86_" transform="matrix(1.62935,0,0,1.62935,-316.182,-308.528)">
        <circle cx="674.9" cy="684.8" r="19.6" style="fill:none;stroke:rgb(77,77,97);stroke-width:3px;"/>
    </g>
    <g id="XMLID_57_" transform="matrix(1.62935,0,0,1.62935,-316.182,-308.528)">
        <rect x="307.8" y="523.2" width="13.6" height="186.7" style="fill:none;stroke:rgb(77,77,97);stroke-width:3px;"/>
    </g>
    <g id="XMLID_69_" transform="matrix(1.62935,0,0,1.62935,-316.182,-308.528)">
        <rect x="307.8" y="523.2" width="13.6" height="186.7" style="fill:rgb(77,77,97);"/>
    </g>
    <g id="XMLID_85_" transform="matrix(1.62935,0,0,1.62935,-316.182,-308.528)">
        <circle cx="674.9" cy="684.8" r="9.7" style="fill:none;stroke:rgb(77,77,97);stroke-width:3px;"/>
    </g>
    <g id="XMLID_14_" transform="matrix(1.62935,0,0,1.62935,-316.182,-308.528)">
        <path d="M697.7,675.1C694.4,675.1 691.4,673.7 689.1,671.3C685.5,667.5 680.5,665.2 674.9,665.2C669.4,665.2 664.5,667.4 660.9,671.1C658.4,673.6 655.2,675.1 651.7,675.1L651.6,675.1C655.4,666 664.4,659.6 674.9,659.6C685.4,659.6 694.4,666 698.2,675.1L697.7,675.1Z" style="fill:rgb(202,67,97);fill-rule:nonzero;"/>
    </g>
    <g id="XMLID_84_" transform="matrix(1.62935,0,0,1.62935,-316.182,-308.528)">
        <circle cx="674.9" cy="684.8" r="9.7" style="fill:rgb(77,77,97);"/>
    </g>
    <g id="XMLID_16_" transform="matrix(1.62935,0,0,1.62935,-316.182,-308.528)">
        <path d="M697.7,675.1C694.4,675.1 691.4,673.7 689.1,671.3C685.5,667.5 680.5,665.2 674.9,665.2C669.4,665.2 664.5,667.4 660.9,671.1C658.4,673.6 655.2,675.1 651.7,675.1L651.6,675.1C655.4,666 664.4,659.6 674.9,659.6C685.4,659.6 694.4,666 698.2,675.1L697.7,675.1Z" style="fill:none;fill-rule:nonzero;stroke:rgb(77,77,97);stroke-width:3px;"/>
    </g>
    <g id="XMLID_67_" transform="matrix(1.62935,0,0,1.62935,-316.182,-308.528)">
        <path d="M537.8,504.6L244.2,504.6C241.8,504.6 239.9,502.7 239.9,500.3L239.9,492.2C239.9,489.8 241.8,487.9 244.2,487.9L537.8,487.9C540.2,487.9 542.1,489.8 542.1,492.2L542.1,500.3C542.1,502.7 540.2,504.6 537.8,504.6Z" style="fill:rgb(185,140,120);fill-rule:nonzero;"/>
    </g>
    <g id="XMLID_124_" transform="matrix(1.62935,0,0,1.62935,-316.182,-308.528)">
        <path d="M351.9,497.1C309.2,497.1 270.8,500 244.5,504.6L459.4,504.6C433,500 394.6,497.1 351.9,497.1Z" style="fill:rgb(201,160,143);fill-rule:nonzero;"/>
    </g>
    <g id="XMLID_21_" transform="matrix(1.62935,0,0,1.62935,-316.182,-308.528)">
        <path d="M537.8,504.6L244.2,504.6C241.8,504.6 239.9,502.7 239.9,500.3L239.9,492.2C239.9,489.8 241.8,487.9 244.2,487.9L537.8,487.9C540.2,487.9 542.1,489.8 542.1,492.2L542.1,500.3C542.1,502.7 540.2,504.6 537.8,504.6Z" style="fill:none;fill-rule:nonzero;stroke:rgb(77,77,97);stroke-width:3px;"/>
    </g>
    <g id="XMLID_45_" transform="matrix(1.62935,0,0,1.62935,-316.182,-308.528)">
        <path d="M506.1,526L275.8,526C269.9,526 265.1,521.2 265.1,515.3C265.1,509.4 269.9,504.6 275.8,504.6L506.1,504.6C512,504.6 516.8,509.4 516.8,515.3C516.8,521.2 512,526 506.1,526Z" style="fill:none;fill-rule:nonzero;stroke:rgb(77,77,97);stroke-width:3px;"/>
    </g>
    <g id="XMLID_68_" transform="matrix(1.62935,0,0,1.62935,-316.182,-308.528)">
        <path d="M506.1,526L275.8,526C269.9,526 265.1,521.2 265.1,515.3C265.1,509.4 269.9,504.6 275.8,504.6L506.1,504.6C512,504.6 516.8,509.4 516.8,515.3C516.8,521.2 512,526 506.1,526Z" style="fill:rgb(77,77,97);fill-rule:nonzero;"/>
    </g>
    <g id="XMLID_147_" transform="matrix(1.62935,0,0,1.62935,-316.182,-308.528)">
        <path d="M361,521C328.1,521 299.9,523.1 287.5,526L434.5,526C422.1,523 393.9,521 361,521Z" style="fill:rgb(87,87,112);fill-rule:nonzero;"/>
    </g>
    <g id="XMLID_65_" transform="matrix(1.62935,0,0,1.62935,-316.182,-308.528)">
        <circle cx="365.1" cy="465.1" r="6.5" style="fill:rgb(131,171,186);"/>
    </g>
    <g id="XMLID_55_" transform="matrix(1.62935,0,0,1.62935,-316.182,-308.528)">
        <circle cx="365.1" cy="465.1" r="6.5" style="fill:none;stroke:rgb(77,77,97);stroke-width:3px;"/>
    </g>
    <g id="XMLID_58_" transform="matrix(1.62935,0,0,1.62935,-316.182,-308.528)">
        <path d="M363.2,462.5L363.7,462.4L339.2,326.3L338.7,326.4C334,327.3 330.8,331.8 331.7,336.5L353.1,455.5C353.9,460.2 358.4,463.3 363.2,462.5Z" style="fill:rgb(146,180,195);fill-rule:nonzero;"/>
    </g>
    <g id="XMLID_75_" transform="matrix(1.62935,0,0,1.62935,-316.182,-308.528)">
        <path d="M352.7,453.4C352.7,437.9 351.3,421.1 348.2,403.8C345,385.7 340.3,368.7 334.7,353.7L352.7,453.4Z" style="fill:rgb(172,211,229);fill-rule:nonzero;"/>
    </g>
    <g id="XMLID_56_" transform="matrix(1.62935,0,0,1.62935,-316.182,-308.528)">
        <path d="M363.2,462.5L363.7,462.4L339.2,326.3L338.7,326.4C334,327.3 330.8,331.8 331.7,336.5L353.1,455.5C353.9,460.2 358.4,463.3 363.2,462.5Z" style="fill:none;fill-rule:nonzero;stroke:rgb(77,77,97);stroke-width:3px;"/>
    </g>
    <g id="XMLID_59_" transform="matrix(1.62935,0,0,1.62935,-316.182,-308.528)">
        <rect x="467.6" y="524" width="13.6" height="186.7" style="fill:none;stroke:rgb(77,77,97);stroke-width:3px;"/>
    </g>
    <g id="XMLID_70_" transform="matrix(1.62935,0,0,1.62935,-316.182,-308.528)">
        <rect x="467.6" y="524" width="13.6" height="186.7" style="fill:rgb(77,77,97);"/>
    </g>
    <g id="XMLID_63_" transform="matrix(1.62935,0,0,1.62935,-316.182,-308.528)">
        <path d="M377.7,480.9L502.7,480.9C508.8,480.9 513.8,475.9 513.8,469.8L513.8,465.1L366.6,465.1L366.6,469.8C366.6,475.9 371.6,480.9 377.7,480.9Z" style="fill:rgb(146,180,195);fill-rule:nonzero;"/>
    </g>
    <g id="XMLID_73_" transform="matrix(1.62935,0,0,1.62935,-316.182,-308.528)">
        <path d="M502.7,477.4L377.7,477.4C371.6,477.4 366.6,472.4 366.6,466.3L366.6,469.8C366.6,475.9 371.6,480.9 377.7,480.9L502.7,480.9C508.8,480.9 513.8,475.9 513.8,469.8L513.8,466.3C513.8,472.4 508.8,477.4 502.7,477.4Z" style="fill:rgb(131,171,186);fill-rule:nonzero;"/>
    </g>
    <g id="XMLID_44_" transform="matrix(1.62935,0,0,1.62935,-316.182,-308.528)">
        <path d="M377.7,480.9L502.7,480.9C508.8,480.9 513.8,475.9 513.8,469.8L513.8,465.1L366.6,465.1L366.6,469.8C366.6,475.9 371.6,480.9 377.7,480.9Z" style="fill:none;fill-rule:nonzero;stroke:rgb(77,77,97);stroke-width:3px;"/>
    </g>
    <g id="XMLID_51_" transform="matrix(-1.62935,-8.36745e-11,8.36745e-11,-1.62935,1118.29,1269.85)">
        <rect x="385.1" y="480.9" width="110.2" height="7" style="fill:none;stroke:rgb(77,77,97);stroke-width:3px;"/>
    </g>
    <g id="XMLID_66_" transform="matrix(-1.62935,-8.36745e-11,8.36745e-11,-1.62935,1118.29,1269.85)">
        <rect x="385.1" y="480.9" width="110.2" height="7" style="fill:rgb(77,77,97);"/>
    </g>
    <g id="XMLID_52_" transform="matrix(-1.62935,-7.30076e-11,7.30076e-11,-1.62935,1134.91,1226.91)">
        <rect x="440.3" y="469.5" width="9.9" height="3.3" style="fill:none;stroke:rgb(77,77,97);stroke-width:2px;"/>
    </g>
    <g id="XMLID_54_" transform="matrix(-1.62935,-7.42044e-11,7.42044e-11,-1.62935,1088.95,1226.91)">
        <rect x="426.2" y="469.5" width="9.9" height="3.3" style="fill:none;stroke:rgb(77,77,97);stroke-width:2px;"/>
    </g>
    <g id="XMLID_53_" transform="matrix(1.62935,0,0,1.62935,-316.182,-308.528)">
        <circle cx="379.5" cy="471.2" r="1.8" style="fill:none;stroke:rgb(77,77,97);stroke-width:2px;"/>
    </g>
    <g id="XMLID_9_" transform="matrix(1.62935,0,0,1.62935,-316.182,-308.528)">
        <path d="M732,413.8C733.5,402.3 725.3,391.8 713.7,390.7C702.6,389.6 692.8,397.8 691.3,408.9L677.6,510.8C677,515.4 680.2,519.6 684.8,520.2L696.9,521.8C701.5,522.4 705.7,519.2 706.3,514.6L708.3,499.6C712,472.1 718.8,444.9 730.4,419.7C731.1,417.9 731.7,415.9 732,413.8Z" style="fill:rgb(202,67,97);fill-rule:nonzero;"/>
    </g>
    <g id="XMLID_158_" transform="matrix(1.62935,0,0,1.62935,-316.182,-308.528)">
        <path d="M704.2,499.6L702.2,514.6C701.7,518.1 699.1,520.9 695.8,521.6L696.9,521.7C701.5,522.3 705.7,519.1 706.3,514.5L708.3,499.5C712,472 718.8,444.8 730.4,419.6C731.2,417.8 731.8,415.8 732.1,413.8C733.6,402.3 725.4,391.8 713.8,390.7C712.5,390.6 711.1,390.6 709.9,390.7C721.5,391.9 729.7,402.4 728.2,413.8C727.9,415.9 727.3,417.8 726.5,419.6" style="fill:rgb(211,83,117);fill-rule:nonzero;"/>
    </g>
    <g id="XMLID_161_" transform="matrix(1.62935,0,0,1.62935,-316.182,-308.528)">
        <path d="M691.3,408.9L680.7,487.9C689.9,461.6 698.8,433.3 698.8,411.3C698.8,396.4 716.9,391.4 721.9,396.4C718.6,390.3 708.1,389.7 702.4,393C696.2,396.5 691.9,404 691.3,408.9Z" style="fill:rgb(211,83,117);fill-rule:nonzero;"/>
    </g>
    <g id="XMLID_109_" transform="matrix(1.62935,0,0,1.62935,-316.182,-308.528)">
        <path d="M732,413.8C733.5,402.3 725.3,391.8 713.7,390.7C702.6,389.6 692.8,397.8 691.3,408.9L677.6,510.8C677,515.4 680.2,519.6 684.8,520.2L696.9,521.8C701.5,522.4 705.7,519.2 706.3,514.6L708.3,499.6C712,472.1 718.8,444.9 730.4,419.7C731.1,417.9 731.7,415.9 732,413.8Z" style="fill:none;fill-rule:nonzero;stroke:rgb(77,77,97);stroke-width:3px;"/>
    </g>
    <g id="XMLID_130_" transform="matrix(1.62935,0,0,1.62935,-316.182,-308.528)">
        <path d="M389,672.5L320.4,628.3C319.1,627.5 318.8,625.8 319.6,624.6L319.7,624.4C320.5,623.1 322.2,622.8 323.4,623.6L392,667.8C393.3,668.6 393.6,670.3 392.8,671.5L392.7,671.7C392,672.9 390.3,673.3 389,672.5Z" style="fill:rgb(89,93,92);fill-rule:nonzero;"/>
    </g>
    <g id="XMLID_96_" transform="matrix(1.62935,0,0,1.62935,-316.182,-308.528)">
        <path d="M389,672.5L320.4,628.3C319.1,627.5 318.8,625.8 319.6,624.6L319.7,624.4C320.5,623.1 322.2,622.8 323.4,623.6L392,667.8C393.3,668.6 393.6,670.3 392.8,671.5L392.7,671.7C392,672.9 390.3,673.3 389,672.5Z" style="fill:none;fill-rule:nonzero;stroke:rgb(77,77,97);stroke-width:3px;"/>
    </g>
    <g id="XMLID_128_" transform="matrix(1.62935,0,0,1.62935,-316.182,-308.528)">
        <path d="M396.3,650L396,649.8C392.6,650.4 388.2,649.4 384.2,646.8C381.2,644.9 378.9,642.3 377.6,639.8C376.4,637.5 374.8,635.4 372.7,634L346.2,616.1C343.1,614 339,613.6 335.1,614.9L326.5,617.9C323.6,618.9 322.7,623 325,624.5L391.4,667.3L397.3,658.1C399.1,655.2 398.7,651.6 396.3,650Z" style="fill:rgb(155,132,98);fill-rule:nonzero;"/>
    </g>
    <g id="XMLID_127_" transform="matrix(1.62935,0,0,1.62935,-316.182,-308.528)">
        <path d="M335.1,614.9L333.7,615.4C333.8,618.7 335.5,621.9 338.5,623.9L380,650.6C383.9,653.1 388.9,652.7 392.3,649.9C389.7,649.6 386.9,648.6 384.2,646.9C381.2,645 378.9,642.4 377.6,639.9C376.4,637.6 374.8,635.5 372.7,634.1L346.2,616.2C343.1,613.9 339,613.5 335.1,614.9Z" style="fill:rgb(225,200,133);fill-opacity:0.74;fill-rule:nonzero;"/>
    </g>
    <g id="XMLID_125_" transform="matrix(1.62935,0,0,1.62935,-316.182,-308.528)">
        <path d="M396.3,650L396,649.8C392.6,650.4 388.2,649.4 384.2,646.8C381.2,644.9 378.9,642.3 377.6,639.8C376.4,637.5 374.8,635.4 372.7,634L346.2,616.1C343.1,614 339,613.6 335.1,614.9L326.5,617.9C323.6,618.9 322.7,623 325,624.5L391.4,667.3L397.3,658.1C399.1,655.2 398.7,651.6 396.3,650Z" style="fill:none;fill-rule:nonzero;stroke:rgb(77,77,97);stroke-width:3px;"/>
    </g>
    <g id="XMLID_97_" transform="matrix(1.62935,0,0,1.62935,-316.182,-308.528)">
        <path d="M365.9,639.8L376.4,637.8L373.7,634.8L365.9,639.8Z" style="fill:none;fill-rule:nonzero;stroke:rgb(77,77,97);stroke-width:3px;"/>
    </g>
    <g id="XMLID_136_" transform="matrix(1.62935,0,0,1.62935,-316.182,-308.528)">
        <path d="M394.7,611.9L386.4,620.1L406.7,645.6L416.7,637.3L394.7,611.9Z" style="fill:rgb(146,180,195);fill-rule:nonzero;"/>
    </g>
    <g id="XMLID_145_" transform="matrix(1.62935,0,0,1.62935,-316.182,-308.528)">
        <path d="M394.1,612.5L386.4,620.1L397.4,633.9C399.2,631.3 400.3,628.2 400.3,624.9C400.3,619.9 397.9,615.4 394.1,612.5Z" style="fill:rgb(158,192,204);fill-rule:nonzero;"/>
    </g>
    <g id="XMLID_99_" transform="matrix(1.62935,0,0,1.62935,-316.182,-308.528)">
        <path d="M394.7,611.9L386.4,620.1L406.7,645.6L416.7,637.3L394.7,611.9Z" style="fill:none;fill-rule:nonzero;stroke:rgb(77,77,97);stroke-width:3px;"/>
    </g>
    <g id="XMLID_141_" transform="matrix(1.62935,0,0,1.62935,-316.182,-308.528)">
        <path d="M558.5,644.5L564.8,654.4L594,639.8L588,628.3L558.5,644.5Z" style="fill:rgb(146,180,195);fill-rule:nonzero;"/>
    </g>
    <g id="XMLID_160_" transform="matrix(1.62935,0,0,1.62935,-316.182,-308.528)">
        <path d="M558.5,644.5L564.8,654.4L594,639.8L588,628.3L558.5,644.5Z" style="fill:rgb(146,180,195);fill-rule:nonzero;"/>
    </g>
    <g id="XMLID_165_" transform="matrix(1.62935,0,0,1.62935,-316.182,-308.528)">
        <path d="M569.8,645.7C569.8,643.5 568.6,641.6 566.6,640L558.5,644.5L564,653.1C567.5,651.4 569.8,648.7 569.8,645.7Z" style="fill:rgb(158,192,204);fill-rule:nonzero;"/>
    </g>
    <g id="XMLID_139_" transform="matrix(1.62935,0,0,1.62935,-316.182,-308.528)">
        <path d="M558.5,644.5L564.8,654.4L594,639.8L588,628.3L558.5,644.5Z" style="fill:none;fill-rule:nonzero;stroke:rgb(77,77,97);stroke-width:3px;"/>
    </g>
    <g id="XMLID_61_" transform="matrix(1.62935,0,0,1.62935,-316.182,-308.528)">
        <ellipse cx="477" cy="404.9" rx="0.8" ry="1.3" style="fill:none;stroke:rgb(77,77,97);stroke-width:2px;"/>
    </g>
    <g id="XMLID_168_" transform="matrix(1.62935,0,0,1.62935,-316.182,-308.528)">
        <path d="M394.7,476.1L389.7,476.1C388.4,476.1 387.3,475 387.3,473.7L387.3,470.7C387.3,469.4 388.4,468.3 389.7,468.3L394.7,468.3C396,468.3 397.1,469.4 397.1,470.7L397.1,473.7C397.1,475 396,476.1 394.7,476.1Z" style="fill:rgb(77,77,97);fill-rule:nonzero;"/>
    </g>
</svg>
