<?xml version="1.0" encoding="UTF-8" standalone="no"?>
<!DOCTYPE svg PUBLIC "-//W3C//DTD SVG 1.1//EN" "http://www.w3.org/Graphics/SVG/1.1/DTD/svg11.dtd">
<svg width="100%" height="100%" viewBox="0 0 1000 1000" version="1.1" xmlns="http://www.w3.org/2000/svg" xmlns:xlink="http://www.w3.org/1999/xlink" xml:space="preserve" xmlns:serif="http://www.serif.com/" style="fill-rule:evenodd;clip-rule:evenodd;stroke-linecap:round;stroke-linejoin:round;stroke-miterlimit:10;">
    <g id="XMLID_1207_">
        <g id="XMLID_43_" transform="matrix(1.80381,0,0,1.80381,-401.899,-365.199)">
            <path id="XMLID_1211_" d="M379.5,713.2C382.8,702.5 392.9,696.8 409.3,692C419.7,689 432.9,687.6 453.6,683.4C463.7,681.4 470.8,677.4 470.8,677.4L470.8,688.9C470.8,688.9 402.3,702.4 391.6,720.1C386.4,728.8 388,750.1 412.5,752.3C405,753.4 392.7,751.5 386.1,744.8C377.9,736.5 375.7,725.4 379.5,713.2Z" style="fill:rgb(40,35,35);fill-rule:nonzero;stroke:black;stroke-width:4px;"/>
            <path id="XMLID_1210_" d="M470.8,688.9C470.8,688.9 429.8,696.5 407.9,705.9C388.7,714.2 389.3,722.8 388.8,731.6C388.5,736.7 392.1,749.3 406.7,751.5C424.1,754.1 444.6,751.3 470.8,734.6L470.8,688.9Z" style="fill:rgb(68,44,42);fill-rule:nonzero;"/>
            <path id="XMLID_53_" d="M388.8,731.6C389.2,724.5 388.9,717.5 398.9,710.7C398.5,713.2 398.4,715.6 398.3,718.1C398,723.2 410.3,716.6 424.9,718.7C440.1,721 449.1,738.4 470.8,726.7L470.8,734.5C444.6,751.2 424.1,753.9 406.7,751.4C392.1,749.3 388.5,736.6 388.8,731.6Z" style="fill:rgb(68,44,42);fill-opacity:0.37;fill-rule:nonzero;"/>
            <path id="XMLID_47_" d="M470.8,688.9C470.8,688.9 429.8,696.5 407.9,705.9C388.7,714.2 389.3,722.8 388.8,731.6C388.5,736.7 392.1,749.3 406.7,751.5C424.1,754.1 444.6,751.3 470.8,734.6L470.8,688.9Z" style="fill:none;fill-rule:nonzero;stroke:black;stroke-width:4px;"/>
            <path id="XMLID_46_" d="M432.8,712.4C429.5,714.2 430.3,731.7 438.3,734.1" style="fill:none;fill-rule:nonzero;stroke:black;stroke-width:4px;"/>
            <path id="XMLID_45_" d="M445.3,711.1C441.9,715.9 444.3,727.2 450.4,730" style="fill:none;fill-rule:nonzero;stroke:black;stroke-width:4px;"/>
            <path id="XMLID_44_" d="M456.8,707.1C453.4,711.9 455.8,723.2 461.9,726" style="fill:none;fill-rule:nonzero;stroke:black;stroke-width:4px;"/>
        </g>
        <g id="XMLID_77_" transform="matrix(1.80381,0,0,1.80381,-401.899,-365.199)">
            <path d="M574.8,655.3C553.2,670.3 522.5,678.9 490.4,678.9C458.4,678.9 427.6,670.3 406,655.3C396.1,648.4 379.5,634 379.5,614.8C379.5,595.6 396.1,581.2 406,574.3C427.6,559.3 458.3,550.7 490.4,550.7C522.4,550.7 553.2,559.3 574.8,574.3C584.7,581.2 601.3,595.6 601.3,614.8C601.3,634 584.7,648.4 574.8,655.3Z" style="fill:rgb(21,30,40);fill-rule:nonzero;"/>
        </g>
        <g id="XMLID_76_" transform="matrix(1.80381,0,0,1.80381,-401.899,-365.199)">
            <path d="M673.7,630.8C673.3,632.8 672.9,634.7 672.3,636.7C656.7,693.6 581.5,736.8 491,736.8C400.3,736.8 324.9,693.4 309.6,636.3C309.2,634.7 308.8,633.1 308.5,631.5C308.1,628.5 308.2,625.5 308.8,622.5C312.5,605.7 332.9,596 354.4,600.8C368.5,603.9 379.5,612.6 384.4,622.9C384.9,625.1 385.7,627.3 386.6,629.4C391.8,641.4 402.2,650.4 409.2,655.4C430.1,670.4 460,679 491,679C522.1,679 551.9,670.4 572.8,655.4C579.9,650.3 590.4,641.2 595.5,629.2C596.3,627.3 597,625.2 597.5,623.2C602.3,612.8 613.4,604.1 627.6,600.9C649.1,596.1 669.5,605.9 673.2,622.6C673.9,625.2 674,628 673.7,630.8Z" style="fill:rgb(42,55,73);fill-rule:nonzero;"/>
        </g>
        <g id="XMLID_1209_" transform="matrix(1.80381,0,0,1.80381,-401.899,-365.199)">
            <path d="M673.2,622.4C673.1,621.9 673,621.5 672.8,621C672.5,622.6 672.1,624.3 671.6,625.9C656.2,682.8 580.9,726 490.5,726C399.8,726 324.4,682.6 309.1,625.5C308.9,624.9 308.8,624.3 308.6,623.6C308.2,626.2 308.1,628.8 308.5,631.3C308.8,632.9 309.2,634.5 309.6,636.1C324.9,693.2 400.3,736.6 491,736.6C581.5,736.6 656.7,693.4 672.3,636.5C672.8,634.6 673.3,632.6 673.7,630.6C674,628 673.9,625.2 673.2,622.4Z" style="fill:rgb(21,30,40);fill-opacity:0.67;fill-rule:nonzero;"/>
        </g>
        <g id="XMLID_56_" transform="matrix(1.80381,0,0,1.80381,-401.899,-365.199)">
            <path d="M673.7,630.8C673.3,632.8 672.9,634.7 672.3,636.7C656.7,693.6 581.5,736.8 491,736.8C400.3,736.8 324.9,693.4 309.6,636.3C309.2,634.7 308.8,633.1 308.5,631.5C308.1,628.5 308.2,625.5 308.8,622.5C312.5,605.7 332.9,596 354.4,600.8C368.5,603.9 379.5,612.6 384.4,622.9C384.9,625.1 385.7,627.3 386.6,629.4C391.8,641.4 402.2,650.4 409.2,655.4C430.1,670.4 460,679 491,679C522.1,679 551.9,670.4 572.8,655.4C579.9,650.3 590.4,641.2 595.5,629.2C596.3,627.3 597,625.2 597.5,623.2C602.3,612.8 613.4,604.1 627.6,600.9C649.1,596.1 669.5,605.9 673.2,622.6C673.9,625.2 674,628 673.7,630.8Z" style="fill:none;fill-rule:nonzero;stroke:black;stroke-width:4px;"/>
        </g>
        <g id="XMLID_75_" transform="matrix(1.80381,0,0,1.80381,-401.899,-365.199)">
            <ellipse cx="492.2" cy="617.8" rx="90.1" ry="30.6" style="fill:rgb(155,33,33);"/>
        </g>
        <g id="XMLID_31_" transform="matrix(1.80381,0,0,1.80381,-401.899,-365.199)">
            <ellipse cx="492.2" cy="617.8" rx="90.1" ry="30.6" style="fill:none;stroke:black;stroke-width:4px;"/>
        </g>
        <g id="XMLID_89_" transform="matrix(1.80381,0,0,1.80381,-401.899,-365.199)">
            <path id="XMLID_69_" d="M594.8,551L387.2,551C371.3,551 359,537.1 361,521.3L370.2,447.8C372.8,426.8 390.6,411.1 411.8,411.1L570.4,411.1C591.5,411.1 609.3,426.8 612,447.8L621.2,521.3C623,537.1 610.7,551 594.8,551Z" style="fill:rgb(241,83,77);fill-rule:nonzero;"/>
            <path id="XMLID_24_" d="M594.8,551L387.2,551C371.3,551 359,537.1 361,521.3L370.2,447.8C372.8,426.8 390.6,411.1 411.8,411.1L570.4,411.1C591.5,411.1 609.3,426.8 612,447.8L621.2,521.3C623,537.1 610.7,551 594.8,551Z" style="fill:none;fill-rule:nonzero;stroke:black;stroke-width:4px;"/>
            <g id="XMLID_1191_">
                <path id="XMLID_1189_" d="M409.7,473.2L407.7,498.3" style="fill:none;fill-rule:nonzero;stroke:black;stroke-width:4px;"/>
                <path id="XMLID_1192_" d="M573.8,473.2L575.8,498.3" style="fill:none;fill-rule:nonzero;stroke:black;stroke-width:4px;"/>
            </g>
        </g>
        <g id="XMLID_1194_" transform="matrix(1.80381,0,0,1.80381,-401.899,-365.199)">
            <path id="XMLID_1202_" d="M594.8,551L387.2,551C371.3,551 359,537.1 361,521.3L370.2,447.8C372.8,426.8 390.6,411.1 411.8,411.1L570.4,411.1C591.5,411.1 609.3,426.8 612,447.8L621.2,521.3C623,537.1 610.7,551 594.8,551Z" style="fill:rgb(241,83,77);fill-rule:nonzero;"/>
            <g id="XMLID_4_" opacity="0.24">
                <path id="XMLID_1208_" d="M370.1,455.6C372.7,434.6 390.5,418.9 411.7,418.9L570.3,418.9C591.4,418.9 609.2,434.6 611.9,455.6L621,528.5C621.3,526.2 621.4,523.8 621.1,521.3L611.9,447.8C609.3,426.8 591.5,411.1 570.3,411.1L411.7,411.1C390.6,411.1 372.8,426.8 370.1,447.8L360.9,521.3C360.6,523.7 360.6,526.1 361,528.5L370.1,455.6Z" style="fill:rgb(155,33,33);fill-rule:nonzero;"/>
                <path id="XMLID_8_" d="M420.9,418.9C420.9,418.9 433.2,421.1 434.2,427.9C435,433.4 434.9,437 437,439.2C439.1,441.4 444,445.9 453.9,445.9C448.4,440.4 448.3,421.1 446.8,421.1C445.4,421.1 441.8,411.5 441.8,411.5L437,409.3C437.1,409.3 419.4,411.5 420.9,418.9Z" style="fill:rgb(155,33,33);fill-rule:nonzero;"/>
                <path id="XMLID_10_" d="M552.3,418.9C552.3,418.9 540,421.1 539,427.9C538.2,433.4 538.3,437 536.2,439.2C534.1,441.3 529.2,445.9 519.3,445.9C524.8,440.4 524.9,421.1 526.4,421.1C527.8,421.1 531.4,411.5 531.4,411.5L536.2,409.3C536.1,409.3 553.8,411.5 552.3,418.9Z" style="fill:rgb(155,33,33);fill-rule:nonzero;"/>
            </g>
            <path id="XMLID_1201_" d="M594.8,551L387.2,551C371.3,551 359,537.1 361,521.3L370.2,447.8C372.8,426.8 390.6,411.1 411.8,411.1L570.4,411.1C591.5,411.1 609.3,426.8 612,447.8L621.2,521.3C623,537.1 610.7,551 594.8,551Z" style="fill:none;fill-rule:nonzero;stroke:black;stroke-width:4px;"/>
            <g id="XMLID_1195_">
                <path id="XMLID_1199_" d="M409.7,473.2L407.7,498.3" style="fill:none;fill-rule:nonzero;stroke:black;stroke-width:4px;"/>
                <path id="XMLID_1196_" d="M573.8,473.2L575.8,498.3" style="fill:none;fill-rule:nonzero;stroke:black;stroke-width:4px;"/>
            </g>
        </g>
        <g id="XMLID_78_" transform="matrix(1.80381,0,0,1.80381,-401.899,-365.199)">
            <path id="XMLID_80_" d="M464.3,369.3L431.4,367.6L416,369.3C416,369.3 405.7,377 405.7,379.1C405.7,381.2 406.7,398.3 406.7,398.3C406.7,398.3 431,401.6 433.6,404.1C436.2,406.6 451.6,421 451.6,421L466.5,415.2L474.3,394.4L464.3,369.3Z" style="fill:rgb(155,33,33);fill-rule:nonzero;"/>
            <path id="XMLID_72_" d="M458.5,356.6L420.5,356.6C405.2,356.6 392.7,369 392.7,384.4C392.7,399.7 405.1,412.2 420.5,412.2L425.5,412.2C433.6,412.2 440.1,418.7 440.1,426.8L440.1,428.3C440.1,438 448,445.9 457.7,445.9L457.7,427.9C457.9,427.9 458.1,428.1 458.1,428.3L458.1,426.8C458.1,408.8 443.5,394.2 425.5,394.2L420.5,394.2C415.1,394.2 410.7,389.8 410.7,384.4C410.7,379 415.1,374.6 420.5,374.6L458.5,374.6L458.5,356.6Z" style="fill:rgb(241,83,77);fill-rule:nonzero;"/>
            <path id="XMLID_81_" d="M456.2,415.5C451.6,403.1 439.6,394.1 425.6,394.1L420.6,394.1C415.2,394.1 410.8,389.7 410.8,384.3C410.8,378.9 415.2,374.5 420.6,374.5L458.6,374.5L458.6,356.5L420.6,356.5C405.3,356.5 392.8,368.9 392.8,384.3C392.8,399.6 405.2,412.1 420.6,412.1L425.6,412.1C433.7,412.1 440.2,418.6 440.2,426.7L440.2,428.2C440.2,437.9 448.1,445.8 457.8,445.8" style="fill:none;fill-rule:nonzero;stroke:black;stroke-width:4px;"/>
        </g>
        <g id="XMLID_28_" transform="matrix(1.80381,0,0,1.80381,-401.899,-365.199)">
            <path id="XMLID_82_" d="M507.8,369.3L540.7,367.6L556.1,369.3C556.1,369.3 566.4,377 566.4,379.1C566.4,381.2 565.4,398.3 565.4,398.3C565.4,398.3 541.1,401.6 538.5,404.1C535.9,406.7 520.5,421 520.5,421L505.6,415.2L497.8,394.4L507.8,369.3Z" style="fill:rgb(155,33,33);fill-rule:nonzero;"/>
            <path id="XMLID_79_" d="M513.6,356.6L551.6,356.6C566.9,356.6 579.4,369 579.4,384.4C579.4,399.7 567,412.2 551.6,412.2L546.6,412.2C538.5,412.2 532,418.7 532,426.8L532,428.3C532,438 524.1,445.9 514.4,445.9L514.4,427.9C514.2,427.9 514,428.1 514,428.3L514,426.8C514,408.8 528.6,394.2 546.6,394.2L551.6,394.2C557,394.2 561.4,389.8 561.4,384.4C561.4,379 557,374.6 551.6,374.6L513.6,374.6L513.6,356.6Z" style="fill:rgb(241,83,77);fill-rule:nonzero;"/>
            <path id="XMLID_71_" d="M516,415.5C520.6,403.1 532.6,394.1 546.6,394.1L551.6,394.1C557,394.1 561.4,389.7 561.4,384.3C561.4,378.9 557,374.5 551.6,374.5L513.6,374.5L513.6,356.5L551.6,356.5C566.9,356.5 579.4,368.9 579.4,384.3C579.4,399.6 567,412.1 551.6,412.1L546.6,412.1C538.5,412.1 532,418.6 532,426.7L532,428.2C532,437.9 524.1,445.8 514.4,445.8" style="fill:none;fill-rule:nonzero;stroke:black;stroke-width:4px;"/>
        </g>
        <g id="XMLID_74_" transform="matrix(1.80381,0,0,1.80381,-401.899,-365.199)">
            <circle cx="487.9" cy="392.7" r="39" style="fill:rgb(244,98,98);"/>
        </g>
        <g id="XMLID_2426_" transform="matrix(1.80381,0,0,1.80381,-401.899,-365.199)">
            <path d="M450.6,381.2C461.4,388.1 474.2,392.2 487.9,392.2C501.6,392.2 514.4,388.2 525.2,381.2C520.3,365.2 505.5,353.6 487.9,353.6C470.4,353.7 455.5,365.3 450.6,381.2Z" style="fill:rgb(241,83,77);fill-rule:nonzero;"/>
        </g>
        <g id="XMLID_23_" transform="matrix(1.80381,0,0,1.80381,-401.899,-365.199)">
            <circle cx="487.9" cy="392.7" r="39" style="fill:none;stroke:black;stroke-width:4px;"/>
        </g>
        <g id="XMLID_70_" transform="matrix(1.80381,0,0,1.80381,-401.899,-365.199)">
            <path d="M487.9,415.3C475.2,415.3 464.9,405 464.9,392.3L464.9,375.1C464.9,371.9 467.5,369.3 470.7,369.3L505.2,369.3C508.4,369.3 511,371.9 511,375.1L511,392.3C510.9,405 500.6,415.3 487.9,415.3Z" style="fill:rgb(255,200,151);fill-rule:nonzero;"/>
        </g>
        <g id="XMLID_2425_" transform="matrix(1.80381,0,0,1.80381,-401.899,-365.199)">
            <path d="M505.2,369.3L470.7,369.3C467.5,369.3 464.9,372.1 464.9,375.5L464.9,389.6C472.1,392.3 479.8,393.8 487.9,393.8C496,393.8 503.7,392.3 510.9,389.6L510.9,375.5C510.9,372.1 508.3,369.3 505.2,369.3Z" style="fill:rgb(229,169,115);fill-rule:nonzero;"/>
        </g>
        <g id="XMLID_15_" transform="matrix(1.80381,0,0,1.80381,-401.899,-365.199)">
            <path d="M487.9,415.3C475.2,415.3 464.9,405 464.9,392.3L464.9,375.1C464.9,371.9 467.5,369.3 470.7,369.3L505.2,369.3C508.4,369.3 511,371.9 511,375.1L511,392.3C510.9,405 500.6,415.3 487.9,415.3Z" style="fill:none;fill-rule:nonzero;stroke:black;stroke-width:4px;"/>
        </g>
        <g id="XMLID_30_" transform="matrix(1.80381,0,0,1.80381,-401.899,-365.199)">
            <rect x="491.4" y="674.4" width="21.4" height="68.3" style="fill:rgb(96,118,145);"/>
        </g>
        <g id="XMLID_33_" transform="matrix(1.80381,0,0,1.80381,-401.899,-365.199)">
            <rect x="491.4" y="674.4" width="21.4" height="68.3" style="fill:none;stroke:black;stroke-width:4px;"/>
        </g>
        <g id="XMLID_54_" transform="matrix(1.80381,0,0,1.80381,-401.899,-365.199)">
            <path d="M386.5,629.2C385.6,627.1 384.9,625 384.3,622.7C385.4,624.9 386.1,627 386.5,629.2Z" style="fill:none;fill-rule:nonzero;stroke:black;stroke-width:4px;"/>
        </g>
        <g id="XMLID_51_" transform="matrix(1.80381,0,0,1.80381,-401.899,-365.199)">
            <path d="M595.6,629C596,626.9 596.7,624.9 597.6,623C597.1,625.1 596.4,627.1 595.6,629Z" style="fill:none;fill-rule:nonzero;stroke:black;stroke-width:4px;"/>
        </g>
        <g id="XMLID_88_" transform="matrix(1.80381,0,0,1.80381,-401.899,-365.199)">
            <path id="XMLID_73_" d="M595.3,624.2L386.8,624.2C379.4,624.2 373.1,618.7 372.1,611.3L359.1,509.5C358,500.7 364.9,492.8 373.8,492.8L608.3,492.8C617.2,492.8 624.1,500.6 623,509.5L610,611.3C609,618.6 602.7,624.2 595.3,624.2Z" style="fill:rgb(181,181,181);fill-rule:nonzero;"/>
            <path id="XMLID_1188_" d="M609.9,604.9C609,612.3 602.7,617.8 595.2,617.8L386.8,617.8C379.4,617.8 373.1,612.3 372.1,604.9L359.3,504.6C359,506.2 358.9,507.8 359.1,509.5L372.1,611.3C373,618.7 379.3,624.2 386.8,624.2L595.3,624.2C602.7,624.2 609,618.7 610,611.3L623,509.5C623.2,507.8 623.1,506.2 622.8,504.6L609.9,604.9Z" style="fill:rgb(126,126,126);fill-opacity:0.21;fill-rule:nonzero;"/>
            <path id="XMLID_91_" d="M359.2,510.4C360.4,503.6 366.4,498.2 373.7,498.2L608.2,498.2C615.6,498.2 621.5,503.5 622.7,510.4L622.8,509.4C623.9,500.6 617,492.7 608.1,492.7L373.8,492.7C364.9,492.7 358,500.5 359.1,509.4L359.2,510.4Z" style="fill:rgb(126,126,126);fill-opacity:0.21;fill-rule:nonzero;"/>
            <path id="XMLID_29_" d="M595.3,624.2L386.8,624.2C379.4,624.2 373.1,618.7 372.1,611.3L359.1,509.5C358,500.7 364.9,492.8 373.8,492.8L608.3,492.8C617.2,492.8 624.1,500.6 623,509.5L610,611.3C609,618.6 602.7,624.2 595.3,624.2Z" style="fill:none;fill-rule:nonzero;stroke:black;stroke-width:4px;"/>
            <path id="XMLID_1190_" d="M500.9,552.3C496.4,552.3 492.8,548.7 492.8,544.2C492.8,543.9 492.8,543.6 492.9,543.3C492.1,543.2 491.3,543.1 490.5,543.1C483.2,543.1 477.2,549.1 477.2,556.4C477.2,563.7 483.2,569.7 490.5,569.7C497.8,569.7 503.8,563.7 503.8,556.4C503.8,554.9 503.5,553.4 503.1,552C502.4,552.1 501.7,552.3 500.9,552.3Z" style="fill:rgb(181,181,181);fill-opacity:0.66;fill-rule:nonzero;"/>
        </g>
        <g id="XMLID_39_" transform="matrix(1.80381,0,0,1.80381,-401.899,-365.199)">
            <path id="XMLID_36_" d="M604.1,713.2C600.8,702.5 590.7,696.8 574.3,692C563.9,689 550.7,687.6 530,683.4C519.9,681.4 512.8,677.4 512.8,677.4L512.8,688.9C512.8,688.9 581.3,702.4 592,720.1C597.2,728.8 595.6,750.1 571.1,752.3C578.6,753.4 590.9,751.5 597.5,744.8C605.7,736.5 607.9,725.4 604.1,713.2Z" style="fill:rgb(40,35,35);fill-rule:nonzero;stroke:black;stroke-width:4px;"/>
            <path id="XMLID_52_" d="M512.8,688.9C512.8,688.9 553.8,696.5 575.7,705.9C594.9,714.2 594.3,722.8 594.8,731.6C595.1,736.7 591.5,749.3 576.9,751.5C559.5,754.1 539,751.3 512.8,734.6L512.8,688.9Z" style="fill:rgb(68,44,42);fill-rule:nonzero;"/>
            <path id="XMLID_1212_" d="M594.8,731.6C594.4,724.5 594.7,717.5 584.7,710.7C585.1,713.2 585.2,715.6 585.3,718.1C585.6,723.2 582,735.8 567.4,738C552.2,740.3 534.5,738.4 512.8,726.7L512.8,734.5C539,751.2 559.5,753.9 576.9,751.4C591.6,749.3 595.1,736.6 594.8,731.6Z" style="fill:rgb(68,44,42);fill-opacity:0.37;fill-rule:nonzero;"/>
            <path id="XMLID_34_" d="M512.8,688.9C512.8,688.9 553.8,696.5 575.7,705.9C594.9,714.2 594.3,722.8 594.8,731.6C595.1,736.7 591.5,749.3 576.9,751.5C559.5,754.1 539,751.3 512.8,734.6L512.8,688.9Z" style="fill:none;fill-rule:nonzero;stroke:black;stroke-width:4px;"/>
            <path id="XMLID_37_" d="M550.8,712.4C554.1,714.2 553.3,731.7 545.3,734.1" style="fill:none;fill-rule:nonzero;stroke:black;stroke-width:4px;"/>
            <path id="XMLID_38_" d="M538.3,711.1C541.7,715.9 539.3,727.2 533.2,730" style="fill:none;fill-rule:nonzero;stroke:black;stroke-width:4px;"/>
            <path id="XMLID_40_" d="M526.8,707.1C530.2,711.9 527.8,723.2 521.7,726" style="fill:none;fill-rule:nonzero;stroke:black;stroke-width:4px;"/>
        </g>
        <g id="XMLID_83_" transform="matrix(1.80381,0,0,1.80381,-401.899,-365.199)">
            <path d="M452.8,435.7L452.8,488.9" style="fill:none;fill-rule:nonzero;stroke:black;stroke-width:6px;"/>
        </g>
        <g id="XMLID_84_" transform="matrix(1.80381,0,0,1.80381,-401.899,-365.199)">
            <path d="M520.3,435.7L520.3,473.2" style="fill:none;fill-rule:nonzero;stroke:black;stroke-width:6px;"/>
        </g>
        <g id="XMLID_27_" transform="matrix(1.80381,0,0,1.80381,-401.899,-365.199)">
            <circle cx="520.3" cy="476.2" r="8.3"/>
        </g>
        <g id="XMLID_86_" transform="matrix(1.80381,0,0,1.80381,-401.899,-365.199)">
            <circle cx="520.3" cy="475.2" r="3.4" style="fill:rgb(126,126,126);"/>
        </g>
        <g id="XMLID_41_" transform="matrix(1.80381,0,0,1.80381,-401.899,-365.199)">
            <path id="XMLID_5_" d="M487.9,386.2C453.1,386.2 424.8,358 424.8,323.1L424.8,249.9L551,249.9L551,323.1C551,357.9 522.8,386.2 487.9,386.2Z" style="fill:rgb(255,200,151);fill-rule:nonzero;"/>
            <path id="XMLID_1198_" d="M487.9,377.5C453.1,377.5 424.8,349.3 424.8,314.4L424.8,323.1C424.8,357.9 453,386.2 487.9,386.2C522.7,386.2 551,358 551,323.1L551,314.4C551,349.2 522.8,377.5 487.9,377.5Z" style="fill:rgb(229,169,115);fill-rule:nonzero;"/>
            <path id="XMLID_2424_" d="M487.9,386.2C453.1,386.2 424.8,358 424.8,323.1L424.8,249.9L551,249.9L551,323.1C551,357.9 522.8,386.2 487.9,386.2Z" style="fill:none;fill-rule:nonzero;stroke:black;stroke-width:4px;"/>
            <path id="XMLID_1197_" d="M551.5,257.2C551.3,253.8 551.1,250.3 551,246.9C509,248.9 466.8,248.6 424.9,244.9C424.6,248.8 424.4,252.7 424.1,256.6C426,258.3 428,260.1 429.9,261.8C431.5,262.6 433.6,263.7 435.5,264.7C443.9,269.1 455.6,274.7 466.8,276.9C470.9,277.7 475.2,278.1 479.6,278C498.5,277.8 514.4,270.3 521.1,267.2C522.1,266.7 522.9,266.3 523.4,266.2C523.8,266 524.2,265.9 524.8,265.9C526,265.9 527.4,266.2 529.1,266.5C531.3,267 533.9,267.5 536.8,267.3C540.1,267.1 543.1,266.1 546,264.2C547.7,261.8 549.6,259.5 551.5,257.2Z" style="fill:rgb(229,169,115);fill-rule:nonzero;"/>
            <path id="XMLID_68_" d="M521.1,219.2C521.1,219.2 470.6,185.9 428.8,223.1C421,230 417.9,239.9 417.9,249L417.9,297.2L424.9,297.2L424.9,262.2C424.9,259.6 426.7,257.6 428.9,257.6C432.5,257.6 452,268 468.5,270.9C493.4,275.2 516.1,263.7 521,262C529.4,259 536.2,269.4 546.8,257.7L547.2,257.7C549.4,257.7 551.2,259.8 551.2,262.3L551.2,297.3L558.2,297.3L558.2,249.3C558,237.5 544.4,207.9 521.1,219.2Z" style="fill:rgb(35,26,23);fill-rule:nonzero;"/>
            <g id="XMLID_2783_" opacity="0.34">
                <rect id="XMLID_2784_" x="417.8" y="290.6" width="7" height="6.6" style="fill:rgb(35,26,23);"/>
                <rect id="XMLID_2785_" x="551" y="290.6" width="7" height="6.6" style="fill:rgb(35,26,23);"/>
            </g>
            <path id="XMLID_3_" d="M521.1,219.2C521.1,219.2 470.6,185.9 428.8,223.1C421,230 417.9,239.9 417.9,249L417.9,297.2L424.9,297.2L424.9,262.2C424.9,259.6 426.7,257.6 428.9,257.6C432.5,257.6 452,268 468.5,270.9C493.4,275.2 516.1,263.7 521,262C529.4,259 536.2,269.4 546.8,257.7L547.2,257.7C549.4,257.7 551.2,259.8 551.2,262.3L551.2,297.3L558.2,297.3L558.2,249.3C558,237.5 544.4,207.9 521.1,219.2Z" style="fill:none;fill-rule:nonzero;stroke:black;stroke-width:4px;"/>
            <path id="XMLID_6_" d="M478.4,251.7C478.4,251.7 424.2,255.2 412.7,226.4" style="fill:none;fill-rule:nonzero;stroke:black;stroke-width:4px;"/>
            <path id="XMLID_9_" d="M486.1,244.8C486.1,244.8 433.9,241.5 420.3,212.7" style="fill:none;fill-rule:nonzero;stroke:black;stroke-width:4px;"/>
            <path id="XMLID_85_" d="M551,289.4L551,322.2C558,322.2 563.6,314.9 563.6,305.8C563.6,296.7 558,289.4 551,289.4Z" style="fill:rgb(255,200,151);fill-rule:nonzero;"/>
            <path id="XMLID_1205_" d="M551,291.2L551,320.3C555.1,317.6 557.9,312.1 557.9,305.7C557.9,299.4 555.1,293.9 551,291.2Z" style="fill:rgb(229,169,115);fill-rule:nonzero;"/>
            <path id="XMLID_12_" d="M551,289.4L551,322.2C558,322.2 563.6,314.9 563.6,305.8C563.6,296.7 558,289.4 551,289.4Z" style="fill:none;fill-rule:nonzero;stroke:black;stroke-width:4px;"/>
            <path id="XMLID_87_" d="M424.9,289.4L424.9,322.2C417.9,322.2 412.3,314.9 412.3,305.8C412.2,296.7 417.9,289.4 424.9,289.4Z" style="fill:rgb(255,200,151);fill-rule:nonzero;"/>
            <path id="XMLID_1203_" d="M424.9,291.8C421.3,294.7 418.8,299.9 418.8,305.8C418.8,311.7 421.2,316.9 424.9,319.8L424.9,291.8Z" style="fill:rgb(229,169,115);fill-rule:nonzero;"/>
            <path id="XMLID_11_" d="M424.9,289.4L424.9,322.2C417.9,322.2 412.3,314.9 412.3,305.8C412.2,296.7 417.9,289.4 424.9,289.4Z" style="fill:none;fill-rule:nonzero;stroke:black;stroke-width:4px;"/>
            <path id="XMLID_7_" d="M485.3,316.1L481.1,329.8C481.1,331.3 486,330.1 491,331.3" style="fill:none;fill-rule:nonzero;stroke:black;stroke-width:4px;"/>
            <path id="XMLID_16_" d="M508.9,341.7C510.4,352.1 497,361.3 486.5,359.4" style="fill:none;fill-rule:nonzero;stroke:black;stroke-width:3px;"/>
            <g id="XMLID_19_">
                <ellipse id="XMLID_14_" cx="465.2" cy="300" rx="4.2" ry="4.5" style="fill:none;stroke:black;stroke-width:2px;"/>
                <ellipse id="XMLID_20_" cx="465.2" cy="300" rx="4.2" ry="4.5"/>
                <path id="XMLID_17_" d="M450.7,290.5C452.8,288 457.7,286.3 463.5,286.3C468.1,286.3 472.1,287.4 474.6,289.1" style="fill:none;fill-rule:nonzero;stroke:black;stroke-width:3px;"/>
            </g>
            <g id="XMLID_13_">
                <ellipse id="XMLID_22_" cx="511.2" cy="300" rx="4.2" ry="4.5" style="fill:none;stroke:black;stroke-width:2px;"/>
                <ellipse id="XMLID_21_" cx="511.2" cy="300" rx="4.2" ry="4.5"/>
                <path id="XMLID_18_" d="M525.7,290.5C523.6,288 518.7,286.3 512.9,286.3C508.3,286.3 504.3,287.4 501.8,289.1" style="fill:none;fill-rule:nonzero;stroke:black;stroke-width:3px;"/>
            </g>
        </g>
    </g>
    <g id="XMLID_1_">
    </g>
</svg>
